G04 #@! TF.FileFunction,Legend,Top*
%FSLAX46Y46*%
G04 Gerber Fmt 4.6, Leading zero omitted, Abs format (unit mm)*
G04 Created by KiCad (PCBNEW 4.0.7) date 02/25/19 20:16:44*
%MOMM*%
%LPD*%
G01*
G04 APERTURE LIST*
%ADD10C,0.100000*%
%ADD11C,0.120000*%
%ADD12C,0.150000*%
G04 APERTURE END LIST*
D10*
D11*
X192137500Y-183275000D02*
X192587500Y-183725000D01*
X195537500Y-183275000D02*
X195087500Y-183725000D01*
X195537500Y-178675000D02*
X195087500Y-178225000D01*
X192137500Y-178675000D02*
X192587500Y-178225000D01*
X196587500Y-179975000D02*
X196587500Y-181975000D01*
X192587500Y-183725000D02*
X195087500Y-183725000D01*
X191087500Y-179975000D02*
X191087500Y-181975000D01*
X192587500Y-178225000D02*
X195087500Y-178225000D01*
D12*
X192504167Y-177629762D02*
X192647024Y-177677381D01*
X192885120Y-177677381D01*
X192980358Y-177629762D01*
X193027977Y-177582143D01*
X193075596Y-177486905D01*
X193075596Y-177391667D01*
X193027977Y-177296429D01*
X192980358Y-177248810D01*
X192885120Y-177201190D01*
X192694643Y-177153571D01*
X192599405Y-177105952D01*
X192551786Y-177058333D01*
X192504167Y-176963095D01*
X192504167Y-176867857D01*
X192551786Y-176772619D01*
X192599405Y-176725000D01*
X192694643Y-176677381D01*
X192932739Y-176677381D01*
X193075596Y-176725000D01*
X193408929Y-176677381D02*
X193647024Y-177677381D01*
X193837501Y-176963095D01*
X194027977Y-177677381D01*
X194266072Y-176677381D01*
X195170834Y-177677381D02*
X194599405Y-177677381D01*
X194885119Y-177677381D02*
X194885119Y-176677381D01*
X194789881Y-176820238D01*
X194694643Y-176915476D01*
X194599405Y-176963095D01*
M02*
