M48
INCH,TZ
T1C0.012
T2C0.024
T3C0.059
T4C0.026
T5C0.067
T6C0.120
T7C0.157
%
G90
G05
T1
X7.8546Y-6.7128
X8.8583Y-5.0022
X8.8939Y-4.4252
X9.0433Y-4.0118
X9.0837Y-4.425
X9.1004Y-4.0866
X9.1004Y-4.1732
X9.1299Y-4.0079
X9.1476Y-4.1732
X9.1614Y-5.9016
X9.2165Y-6.2953
X9.2244Y-4.1732
X9.2323Y-6.6656
X9.2325Y-6.7128
X9.2441Y-6.2953
X9.2719Y-6.2955
X9.2963Y-4.425
X9.4626Y-5.002
X9.4786Y-6.7128
X9.4803Y-6.6654
X9.6457Y-5.9016
X9.6634Y-5.0039
X9.8504Y-5.9016
X9.9097Y-6.6656
X9.9117Y-6.8211
X9.9845Y-7.1235
X10.0554Y-6.6144
X10.1024Y-6.2559
X10.1656Y-7.3782
X10.1752Y-6.2559
X10.2916Y-7.3073
X10.3664Y-6.6656
X10.3861Y-7.3782
X10.4333Y-6.8743
X10.4432Y-6.831
X10.5987Y-7.1499
X10.6656Y-6.7247
X10.7443Y-6.7247
X10.8349Y-7.0002
X11.3506Y-6.9727
T3
X3.4125Y-4.025
X3.5063Y-5.525
X3.6Y-4.775
X3.6Y-7.025
X3.6625Y-3.925
X3.6938Y-5.525
X3.7563Y-5.425
X3.85Y-4.675
X3.85Y-6.925
X3.8813Y-6.275
X3.9438Y-5.425
X4.1312Y-6.175
X4.1625Y-4.025
X4.4125Y-3.925
X4.5375Y-4.775
X4.5375Y-7.025
X4.725Y-5.525
X4.7875Y-4.675
X4.7875Y-6.925
X4.9125Y-4.025
X4.975Y-5.425
X5.1Y-6.275
X5.1625Y-3.925
X5.2875Y-4.775
X5.35Y-6.175
X5.475Y-5.525
X5.475Y-7.025
X5.5375Y-4.675
X5.6625Y-4.025
X5.725Y-5.425
X5.725Y-6.925
X5.85Y-6.275
X5.9125Y-3.925
X6.0375Y-4.775
X6.1Y-6.175
X6.225Y-5.525
X6.2875Y-4.675
X6.4125Y-4.025
X6.475Y-5.425
X6.6Y-6.275
X6.6625Y-3.925
X6.7875Y-4.775
X6.85Y-6.175
X6.975Y-5.525
X7.0375Y-4.675
X7.1625Y-4.025
X7.225Y-5.425
X7.35Y-6.275
X7.4125Y-3.925
X7.5375Y-4.775
X7.6Y-6.175
X7.725Y-5.525
X7.7875Y-4.675
X7.9125Y-4.025
X7.975Y-5.425
X8.1Y-6.275
X8.1625Y-3.925
X8.2875Y-4.775
X8.35Y-6.175
X8.475Y-5.525
X8.5375Y-4.675
X8.6625Y-4.025
X8.6625Y-7.025
X8.725Y-5.425
X8.85Y-6.275
X8.9125Y-3.925
X8.9125Y-6.925
X9.0375Y-4.775
X9.1Y-6.175
X9.225Y-5.525
X9.2875Y-4.675
X9.4125Y-4.025
X9.475Y-5.425
X9.6Y-6.275
X9.6625Y-3.925
X9.7875Y-4.775
X9.85Y-6.175
X9.975Y-5.525
X10.0375Y-4.675
X10.1625Y-4.025
X10.225Y-5.425
X10.35Y-6.275
X10.4125Y-3.925
X10.5375Y-4.775
X10.6Y-6.175
X10.725Y-5.525
X10.7875Y-4.675
X10.9125Y-4.025
X10.975Y-5.425
X11.1Y-6.275
X11.1625Y-3.925
X11.2875Y-4.775
X11.35Y-6.175
X11.475Y-5.525
X11.5375Y-4.675
X11.6625Y-4.025
X11.725Y-5.425
X11.85Y-6.275
X11.85Y-7.025
X11.9125Y-3.925
X12.0375Y-4.775
X12.1Y-6.175
X12.1Y-6.925
X12.225Y-5.525
X12.2875Y-4.675
X12.4125Y-4.025
X12.475Y-5.425
X12.6625Y-3.925
X12.7875Y-4.775
X12.8812Y-6.275
X13.0375Y-4.675
X13.1312Y-6.175
X13.1625Y-4.025
X13.1625Y-7.025
X13.4125Y-3.925
X13.4125Y-6.925
X13.4437Y-5.525
X13.5375Y-4.025
X13.6937Y-5.425
X13.725Y-4.775
X13.7875Y-3.925
X13.9125Y-4.025
X13.9125Y-6.275
X13.9125Y-7.025
X13.975Y-4.675
X14.1625Y-3.925
X14.1625Y-6.175
X14.1625Y-6.925
X14.6625Y-4.025
X14.6625Y-4.775
X14.6625Y-5.525
X14.6625Y-6.275
X14.6625Y-7.025
X14.9125Y-3.925
X14.9125Y-4.675
X14.9125Y-5.425
X14.9125Y-6.175
X14.9125Y-6.925
T4
X9.0752Y-3.8703
X9.3028Y-3.8703
T5
X3.3625Y-4.125
X3.4562Y-5.625
X3.55Y-4.875
X3.55Y-7.125
X3.6437Y-5.625
X3.7625Y-4.125
X3.8312Y-6.375
X3.8562Y-5.625
X3.95Y-4.875
X3.95Y-7.125
X4.0438Y-5.625
X4.1125Y-4.125
X4.2313Y-6.375
X4.4875Y-4.875
X4.4875Y-7.125
X4.5125Y-4.125
X4.675Y-5.625
X4.8625Y-4.125
X4.8875Y-4.875
X4.8875Y-7.125
X5.05Y-6.375
X5.075Y-5.625
X5.2375Y-4.875
X5.2625Y-4.125
X5.425Y-5.625
X5.425Y-7.125
X5.45Y-6.375
X5.6125Y-4.125
X5.6375Y-4.875
X5.8Y-6.375
X5.825Y-5.625
X5.825Y-7.125
X5.9875Y-4.875
X6.0125Y-4.125
X6.175Y-5.625
X6.2Y-6.375
X6.3625Y-4.125
X6.3875Y-4.875
X6.55Y-6.375
X6.575Y-5.625
X6.7375Y-4.875
X6.7625Y-4.125
X6.925Y-5.625
X6.95Y-6.375
X7.1125Y-4.125
X7.1375Y-4.875
X7.3Y-6.375
X7.325Y-5.625
X7.4875Y-4.875
X7.5125Y-4.125
X7.675Y-5.625
X7.7Y-6.375
X7.8625Y-4.125
X7.8875Y-4.875
X8.05Y-6.375
X8.075Y-5.625
X8.2375Y-4.875
X8.2625Y-4.125
X8.425Y-5.625
X8.45Y-6.375
X8.6125Y-4.125
X8.6125Y-7.125
X8.6375Y-4.875
X8.8Y-6.375
X8.825Y-5.625
X8.9875Y-4.875
X9.0125Y-4.125
X9.0125Y-7.125
X9.175Y-5.625
X9.2Y-6.375
X9.3625Y-4.125
X9.3875Y-4.875
X9.55Y-6.375
X9.575Y-5.625
X9.7375Y-4.875
X9.7625Y-4.125
X9.925Y-5.625
X9.95Y-6.375
X10.1125Y-4.125
X10.1375Y-4.875
X10.3Y-6.375
X10.325Y-5.625
X10.4875Y-4.875
X10.5125Y-4.125
X10.675Y-5.625
X10.7Y-6.375
X10.8625Y-4.125
X10.8875Y-4.875
X11.05Y-6.375
X11.075Y-5.625
X11.2375Y-4.875
X11.2625Y-4.125
X11.425Y-5.625
X11.45Y-6.375
X11.6125Y-4.125
X11.6375Y-4.875
X11.8Y-6.375
X11.8Y-7.125
X11.825Y-5.625
X11.9875Y-4.875
X12.0125Y-4.125
X12.175Y-5.625
X12.2Y-6.375
X12.2Y-7.125
X12.3625Y-4.125
X12.3875Y-4.875
X12.575Y-5.625
X12.7375Y-4.875
X12.7625Y-4.125
X12.8312Y-6.375
X13.1125Y-4.125
X13.1125Y-7.125
X13.1375Y-4.875
X13.2312Y-6.375
X13.3937Y-5.625
X13.4875Y-4.125
X13.5125Y-4.125
X13.5125Y-7.125
X13.675Y-4.875
X13.7937Y-5.625
X13.8625Y-4.125
X13.8625Y-6.375
X13.8625Y-7.125
X13.8875Y-4.125
X14.075Y-4.875
X14.2625Y-4.125
X14.2625Y-6.375
X14.2625Y-7.125
X14.6125Y-4.125
X14.6125Y-4.875
X14.6125Y-5.625
X14.6125Y-6.375
X14.6125Y-7.125
X15.0125Y-4.125
X15.0125Y-4.875
X15.0125Y-5.625
X15.0125Y-6.375
X15.0125Y-7.125
T6
X3.5612Y-6.65
X4.5012Y-6.65
X6.5625Y-7.4
X11.0625Y-7.4
X13.1237Y-5.35
X13.2175Y-3.85
X14.0637Y-5.35
X14.1575Y-3.85
T7
X3.5612Y-6.05
X3.5625Y-4.125
X3.6562Y-5.625
X3.75Y-4.875
X3.75Y-7.125
X3.8438Y-5.625
X4.0312Y-6.375
X4.3125Y-4.125
X4.5012Y-6.05
X4.6875Y-4.875
X4.6875Y-7.125
X4.875Y-5.625
X5.0625Y-4.125
X5.25Y-6.375
X5.4375Y-4.875
X5.625Y-5.625
X5.625Y-7.125
X5.8125Y-4.125
X6.Y-6.375
X6.1875Y-4.875
X6.375Y-5.625
X6.5625Y-4.125
X6.5625Y-6.8
X6.75Y-6.375
X6.9375Y-4.875
X7.125Y-5.625
X7.3125Y-4.125
X7.5Y-6.375
X7.6875Y-4.875
X7.875Y-5.625
X8.0625Y-4.125
X8.25Y-6.375
X8.4375Y-4.875
X8.625Y-5.625
X8.8125Y-4.125
X8.8125Y-7.125
X9.Y-6.375
X9.1875Y-4.875
X9.375Y-5.625
X9.5625Y-4.125
X9.75Y-6.375
X9.9375Y-4.875
X10.125Y-5.625
X10.3125Y-4.125
X10.5Y-6.375
X10.6875Y-4.875
X10.875Y-5.625
X11.0625Y-4.125
X11.0625Y-6.8
X11.25Y-6.375
X11.4375Y-4.875
X11.625Y-5.625
X11.8125Y-4.125
X12.Y-6.375
X12.Y-7.125
X12.1875Y-4.875
X12.375Y-5.625
X12.5625Y-4.125
X12.9375Y-4.875
X13.0312Y-6.375
X13.1237Y-5.95
X13.2175Y-4.45
X13.3125Y-4.125
X13.3125Y-7.125
X13.5938Y-5.625
X13.6875Y-4.125
X13.875Y-4.875
X14.0625Y-4.125
X14.0625Y-6.375
X14.0625Y-7.125
X14.0637Y-5.95
X14.1575Y-4.45
X14.8125Y-4.125
X14.8125Y-4.875
X14.8125Y-5.625
X14.8125Y-6.375
X14.8125Y-7.125
T2
X9.0189Y-3.7148G85X9.0189Y-3.7384
G05
X9.0189Y-3.8695G85X9.0189Y-3.9128
G05
X9.3591Y-3.7148G85X9.3591Y-3.7384
G05
X9.3591Y-3.8695G85X9.3591Y-3.9128
G05
T0
M30
