G04 #@! TF.FileFunction,Soldermask,Bot*
%FSLAX46Y46*%
G04 Gerber Fmt 4.6, Leading zero omitted, Abs format (unit mm)*
G04 Created by KiCad (PCBNEW 4.0.7) date 02/25/19 20:16:44*
%MOMM*%
%LPD*%
G01*
G04 APERTURE LIST*
%ADD10C,0.100000*%
%ADD11R,1.220000X0.920000*%
%ADD12C,2.306000*%
%ADD13R,0.770000X1.220000*%
%ADD14R,1.220000X0.770000*%
%ADD15R,0.920000X1.220000*%
%ADD16R,0.570000X1.520000*%
%ADD17R,1.520000X0.570000*%
%ADD18R,1.420000X1.220000*%
%ADD19O,1.020000X1.620000*%
%ADD20O,1.020000X2.120000*%
%ADD21C,0.670000*%
%ADD22R,0.270000X1.470000*%
%ADD23R,0.520000X1.470000*%
G04 APERTURE END LIST*
D10*
D11*
X372662500Y-110550000D03*
X372662500Y-107250000D03*
D12*
X378777500Y-99695000D03*
X372427500Y-102235000D03*
X221615000Y-137795000D03*
X215265000Y-140335000D03*
X145415000Y-175895000D03*
X139065000Y-178435000D03*
X378777500Y-137795000D03*
X372427500Y-140335000D03*
X140652500Y-118745000D03*
X134302500Y-121285000D03*
X274002500Y-118745000D03*
X267652500Y-121285000D03*
X131127500Y-99695000D03*
X124777500Y-102235000D03*
D13*
X247706250Y-175806250D03*
X247706250Y-173906250D03*
X247706250Y-181206250D03*
X247706250Y-183106250D03*
D14*
X262006250Y-187906250D03*
X260106250Y-187906250D03*
X261606250Y-169306250D03*
X259706250Y-169306250D03*
X250406250Y-168306250D03*
X252306250Y-168306250D03*
D13*
X258306250Y-168906250D03*
X258306250Y-167006250D03*
D14*
X270956250Y-175906250D03*
X272856250Y-175906250D03*
X272856250Y-181906250D03*
X270956250Y-181906250D03*
D12*
X93027500Y-99695000D03*
X86677500Y-102235000D03*
X112077500Y-99695000D03*
X105727500Y-102235000D03*
X150177500Y-99695000D03*
X143827500Y-102235000D03*
X169227500Y-99695000D03*
X162877500Y-102235000D03*
X188277500Y-99695000D03*
X181927500Y-102235000D03*
X207327500Y-99695000D03*
X200977500Y-102235000D03*
X226377500Y-99695000D03*
X220027500Y-102235000D03*
X245427500Y-99695000D03*
X239077500Y-102235000D03*
X264477500Y-99695000D03*
X258127500Y-102235000D03*
X283527500Y-99695000D03*
X277177500Y-102235000D03*
X302577500Y-99695000D03*
X296227500Y-102235000D03*
X321627500Y-99695000D03*
X315277500Y-102235000D03*
X350202500Y-99695000D03*
X343852500Y-102235000D03*
X340677500Y-99695000D03*
X334327500Y-102235000D03*
X359727500Y-99695000D03*
X353377500Y-102235000D03*
X97790000Y-118745000D03*
X91440000Y-121285000D03*
X121602500Y-118745000D03*
X115252500Y-121285000D03*
X159702500Y-118745000D03*
X153352500Y-121285000D03*
X178752500Y-118745000D03*
X172402500Y-121285000D03*
X197802500Y-118745000D03*
X191452500Y-121285000D03*
X216852500Y-118745000D03*
X210502500Y-121285000D03*
X235902500Y-118745000D03*
X229552500Y-121285000D03*
X254952500Y-118745000D03*
X248602500Y-121285000D03*
X293052500Y-118745000D03*
X286702500Y-121285000D03*
X312102500Y-118745000D03*
X305752500Y-121285000D03*
X100171250Y-137795000D03*
X93821250Y-140335000D03*
X95408750Y-137795000D03*
X89058750Y-140335000D03*
X126365000Y-137795000D03*
X120015000Y-140335000D03*
X145415000Y-137795000D03*
X139065000Y-140335000D03*
X164465000Y-137795000D03*
X158115000Y-140335000D03*
X183515000Y-137795000D03*
X177165000Y-140335000D03*
X202565000Y-137795000D03*
X196215000Y-140335000D03*
X240665000Y-137795000D03*
X234315000Y-140335000D03*
X259715000Y-137795000D03*
X253365000Y-140335000D03*
X278765000Y-137795000D03*
X272415000Y-140335000D03*
X297815000Y-137795000D03*
X291465000Y-140335000D03*
X316865000Y-137795000D03*
X310515000Y-140335000D03*
X347821250Y-137795000D03*
X341471250Y-140335000D03*
X135890000Y-156845000D03*
X129540000Y-159385000D03*
X154940000Y-156845000D03*
X148590000Y-159385000D03*
X173990000Y-156845000D03*
X167640000Y-159385000D03*
X193040000Y-156845000D03*
X186690000Y-159385000D03*
X212090000Y-156845000D03*
X205740000Y-159385000D03*
X231140000Y-156845000D03*
X224790000Y-159385000D03*
X250190000Y-156845000D03*
X243840000Y-159385000D03*
X269240000Y-156845000D03*
X262890000Y-159385000D03*
X288290000Y-156845000D03*
X281940000Y-159385000D03*
X307340000Y-156845000D03*
X300990000Y-159385000D03*
X333533750Y-156845000D03*
X327183750Y-159385000D03*
X359727500Y-156845000D03*
X353377500Y-159385000D03*
X340677500Y-175895000D03*
X334327500Y-178435000D03*
X359727500Y-175895000D03*
X353377500Y-178435000D03*
X378777500Y-175895000D03*
X372427500Y-178435000D03*
D15*
X230356250Y-103806250D03*
X230356250Y-106006250D03*
X236206250Y-103806250D03*
X236206250Y-106006250D03*
X254200000Y-166800000D03*
X254200000Y-169000000D03*
X256600000Y-166800000D03*
X256600000Y-169000000D03*
X266700000Y-176212500D03*
X266700000Y-174012500D03*
X246200000Y-181100000D03*
X246200000Y-183300000D03*
D16*
X253400000Y-172893750D03*
X254200000Y-172893750D03*
X255000000Y-172893750D03*
X255800000Y-172893750D03*
X256600000Y-172893750D03*
X257400000Y-172893750D03*
X258200000Y-172893750D03*
X259000000Y-172893750D03*
X259800000Y-172893750D03*
X260600000Y-172893750D03*
X261400000Y-172893750D03*
D17*
X263100000Y-174593750D03*
X263100000Y-175393750D03*
X263100000Y-176193750D03*
X263100000Y-176993750D03*
X263100000Y-177793750D03*
X263100000Y-178593750D03*
X263100000Y-179393750D03*
X263100000Y-180193750D03*
X263100000Y-180993750D03*
X263100000Y-181793750D03*
X263100000Y-182593750D03*
D16*
X261400000Y-184293750D03*
X260600000Y-184293750D03*
X259800000Y-184293750D03*
X259000000Y-184293750D03*
X258200000Y-184293750D03*
X257400000Y-184293750D03*
X256600000Y-184293750D03*
X255800000Y-184293750D03*
X255000000Y-184293750D03*
X254200000Y-184293750D03*
X253400000Y-184293750D03*
D17*
X251700000Y-182593750D03*
X251700000Y-181793750D03*
X251700000Y-180993750D03*
X251700000Y-180193750D03*
X251700000Y-179393750D03*
X251700000Y-178593750D03*
X251700000Y-177793750D03*
X251700000Y-176993750D03*
X251700000Y-176193750D03*
X251700000Y-175393750D03*
X251700000Y-174593750D03*
D18*
X270906250Y-179556250D03*
X273306250Y-179556250D03*
X270906250Y-177856250D03*
X273306250Y-177856250D03*
D12*
X378777500Y-118745000D03*
X372427500Y-121285000D03*
X331152500Y-118745000D03*
X324802500Y-121285000D03*
X354965000Y-118745000D03*
X348615000Y-121285000D03*
X378777500Y-156845000D03*
X372427500Y-159385000D03*
X97790000Y-175895000D03*
X91440000Y-178435000D03*
X121602500Y-175895000D03*
X115252500Y-178435000D03*
X307340000Y-175895000D03*
X300990000Y-178435000D03*
X226377500Y-175895000D03*
X220027500Y-178435000D03*
D11*
X86915698Y-108806340D03*
X86915698Y-105506340D03*
X105965714Y-108806340D03*
X105965714Y-105506340D03*
X125015625Y-108806250D03*
X125015625Y-105506250D03*
X144065625Y-108806250D03*
X144065625Y-105506250D03*
X163115625Y-108806250D03*
X163115625Y-105506250D03*
X182165625Y-108806250D03*
X182165625Y-105506250D03*
X201215625Y-108806250D03*
X201215625Y-105506250D03*
X220265625Y-108806250D03*
X220265625Y-105506250D03*
X239315625Y-108806250D03*
X239315625Y-105506250D03*
X258365625Y-108806250D03*
X258365625Y-105506250D03*
X277415625Y-108806250D03*
X277415625Y-105506250D03*
X296465625Y-108806250D03*
X296465625Y-105506250D03*
X315515625Y-108806250D03*
X315515625Y-105506250D03*
X334565625Y-108806250D03*
X334565625Y-105506250D03*
X353615625Y-108806250D03*
X353615625Y-105506250D03*
X91678125Y-127856250D03*
X91678125Y-124556250D03*
X115490625Y-127856250D03*
X115490625Y-124556250D03*
X134540625Y-127856250D03*
X134540625Y-124556250D03*
X153590625Y-127856250D03*
X153590625Y-124556250D03*
X172640625Y-127856250D03*
X172640625Y-124556250D03*
X191690625Y-127856250D03*
X191690625Y-124556250D03*
X210740625Y-127856250D03*
X210740625Y-124556250D03*
X229790625Y-127856250D03*
X229790625Y-124556250D03*
X248840625Y-127856250D03*
X248840625Y-124556250D03*
X267890625Y-127856250D03*
X267890625Y-124556250D03*
X286940625Y-127856250D03*
X286940625Y-124556250D03*
X305990625Y-127856250D03*
X305990625Y-124556250D03*
X325040625Y-127856250D03*
X325040625Y-124556250D03*
X348853125Y-127856250D03*
X348853125Y-124556250D03*
X372665625Y-127856250D03*
X372665625Y-124556250D03*
X89296875Y-146906250D03*
X89296875Y-143606250D03*
X120253125Y-146906250D03*
X120253125Y-143606250D03*
X139303125Y-146906250D03*
X139303125Y-143606250D03*
X158353125Y-146906250D03*
X158353125Y-143606250D03*
X177403125Y-146906250D03*
X177403125Y-143606250D03*
X196453125Y-146906250D03*
X196453125Y-143606250D03*
X215503125Y-146906250D03*
X215503125Y-143606250D03*
X234553125Y-146906250D03*
X234553125Y-143606250D03*
X253603125Y-146906250D03*
X253603125Y-143606250D03*
X272653125Y-146906250D03*
X272653125Y-143606250D03*
X291703125Y-146906250D03*
X291703125Y-143606250D03*
X310753125Y-146906250D03*
X310753125Y-143606250D03*
X341709375Y-146906250D03*
X341709375Y-143606250D03*
X372665625Y-146906250D03*
X372665625Y-143606250D03*
X98821875Y-165956250D03*
X98821875Y-162656250D03*
X129778125Y-165956250D03*
X129778125Y-162656250D03*
X148828125Y-165956250D03*
X148828125Y-162656250D03*
X167878125Y-165956250D03*
X167878125Y-162656250D03*
X186928125Y-165956250D03*
X186928125Y-162656250D03*
X205978125Y-165956250D03*
X205978125Y-162656250D03*
X225028125Y-165956250D03*
X225028125Y-162656250D03*
X244078125Y-165956250D03*
X244078125Y-162656250D03*
X263128125Y-165956250D03*
X263128125Y-162656250D03*
X282178125Y-165956250D03*
X282178125Y-162656250D03*
X301228125Y-165956250D03*
X301228125Y-162656250D03*
X327421875Y-165956250D03*
X327421875Y-162656250D03*
X353615625Y-165956250D03*
X353615625Y-162656250D03*
X372665625Y-165956250D03*
X372665625Y-162656250D03*
X91678125Y-185006250D03*
X91678125Y-181706250D03*
X115490625Y-185006250D03*
X115490625Y-181706250D03*
X139303125Y-185006250D03*
X139303125Y-181706250D03*
X220265625Y-185006250D03*
X220265625Y-181706250D03*
X301228125Y-185006250D03*
X301228125Y-181706250D03*
X334565625Y-185006250D03*
X334565625Y-181706250D03*
X353615625Y-185006250D03*
X353615625Y-181706250D03*
X372665625Y-185006250D03*
X372665625Y-181706250D03*
D12*
X104933750Y-156845000D03*
X98583750Y-159385000D03*
D19*
X237720000Y-94655000D03*
X229080000Y-94655000D03*
D20*
X237720000Y-98835000D03*
X229080000Y-98835000D03*
D21*
X230510000Y-98305000D03*
X236290000Y-98305000D03*
D22*
X233150000Y-99750000D03*
X233650000Y-99750000D03*
X234150000Y-99750000D03*
X232650000Y-99750000D03*
X234650000Y-99750000D03*
X232150000Y-99750000D03*
X235150000Y-99750000D03*
X231650000Y-99750000D03*
D23*
X230950000Y-99750000D03*
X235850000Y-99750000D03*
X230175000Y-99750000D03*
X236625000Y-99750000D03*
M02*
