G04 #@! TF.FileFunction,Paste,Bot*
%FSLAX46Y46*%
G04 Gerber Fmt 4.6, Leading zero omitted, Abs format (unit mm)*
G04 Created by KiCad (PCBNEW 4.0.7) date 02/25/19 20:16:43*
%MOMM*%
%LPD*%
G01*
G04 APERTURE LIST*
%ADD10C,0.100000*%
%ADD11R,1.200000X0.900000*%
%ADD12R,0.750000X1.200000*%
%ADD13R,1.200000X0.750000*%
%ADD14R,0.900000X1.200000*%
%ADD15R,0.550000X1.500000*%
%ADD16R,1.500000X0.550000*%
%ADD17R,1.400000X1.200000*%
%ADD18R,0.250000X1.450000*%
%ADD19R,0.500000X1.450000*%
G04 APERTURE END LIST*
D10*
D11*
X372662500Y-110550000D03*
X372662500Y-107250000D03*
D12*
X247706250Y-175806250D03*
X247706250Y-173906250D03*
X247706250Y-181206250D03*
X247706250Y-183106250D03*
D13*
X262006250Y-187906250D03*
X260106250Y-187906250D03*
X261606250Y-169306250D03*
X259706250Y-169306250D03*
X250406250Y-168306250D03*
X252306250Y-168306250D03*
D12*
X258306250Y-168906250D03*
X258306250Y-167006250D03*
D13*
X270956250Y-175906250D03*
X272856250Y-175906250D03*
X272856250Y-181906250D03*
X270956250Y-181906250D03*
D14*
X230356250Y-103806250D03*
X230356250Y-106006250D03*
X236206250Y-103806250D03*
X236206250Y-106006250D03*
X254200000Y-166800000D03*
X254200000Y-169000000D03*
X256600000Y-166800000D03*
X256600000Y-169000000D03*
X266700000Y-176212500D03*
X266700000Y-174012500D03*
X246200000Y-181100000D03*
X246200000Y-183300000D03*
D15*
X253400000Y-172893750D03*
X254200000Y-172893750D03*
X255000000Y-172893750D03*
X255800000Y-172893750D03*
X256600000Y-172893750D03*
X257400000Y-172893750D03*
X258200000Y-172893750D03*
X259000000Y-172893750D03*
X259800000Y-172893750D03*
X260600000Y-172893750D03*
X261400000Y-172893750D03*
D16*
X263100000Y-174593750D03*
X263100000Y-175393750D03*
X263100000Y-176193750D03*
X263100000Y-176993750D03*
X263100000Y-177793750D03*
X263100000Y-178593750D03*
X263100000Y-179393750D03*
X263100000Y-180193750D03*
X263100000Y-180993750D03*
X263100000Y-181793750D03*
X263100000Y-182593750D03*
D15*
X261400000Y-184293750D03*
X260600000Y-184293750D03*
X259800000Y-184293750D03*
X259000000Y-184293750D03*
X258200000Y-184293750D03*
X257400000Y-184293750D03*
X256600000Y-184293750D03*
X255800000Y-184293750D03*
X255000000Y-184293750D03*
X254200000Y-184293750D03*
X253400000Y-184293750D03*
D16*
X251700000Y-182593750D03*
X251700000Y-181793750D03*
X251700000Y-180993750D03*
X251700000Y-180193750D03*
X251700000Y-179393750D03*
X251700000Y-178593750D03*
X251700000Y-177793750D03*
X251700000Y-176993750D03*
X251700000Y-176193750D03*
X251700000Y-175393750D03*
X251700000Y-174593750D03*
D17*
X270906250Y-179556250D03*
X273306250Y-179556250D03*
X270906250Y-177856250D03*
X273306250Y-177856250D03*
D11*
X86915698Y-108806340D03*
X86915698Y-105506340D03*
X105965714Y-108806340D03*
X105965714Y-105506340D03*
X125015625Y-108806250D03*
X125015625Y-105506250D03*
X144065625Y-108806250D03*
X144065625Y-105506250D03*
X163115625Y-108806250D03*
X163115625Y-105506250D03*
X182165625Y-108806250D03*
X182165625Y-105506250D03*
X201215625Y-108806250D03*
X201215625Y-105506250D03*
X220265625Y-108806250D03*
X220265625Y-105506250D03*
X239315625Y-108806250D03*
X239315625Y-105506250D03*
X258365625Y-108806250D03*
X258365625Y-105506250D03*
X277415625Y-108806250D03*
X277415625Y-105506250D03*
X296465625Y-108806250D03*
X296465625Y-105506250D03*
X315515625Y-108806250D03*
X315515625Y-105506250D03*
X334565625Y-108806250D03*
X334565625Y-105506250D03*
X353615625Y-108806250D03*
X353615625Y-105506250D03*
X91678125Y-127856250D03*
X91678125Y-124556250D03*
X115490625Y-127856250D03*
X115490625Y-124556250D03*
X134540625Y-127856250D03*
X134540625Y-124556250D03*
X153590625Y-127856250D03*
X153590625Y-124556250D03*
X172640625Y-127856250D03*
X172640625Y-124556250D03*
X191690625Y-127856250D03*
X191690625Y-124556250D03*
X210740625Y-127856250D03*
X210740625Y-124556250D03*
X229790625Y-127856250D03*
X229790625Y-124556250D03*
X248840625Y-127856250D03*
X248840625Y-124556250D03*
X267890625Y-127856250D03*
X267890625Y-124556250D03*
X286940625Y-127856250D03*
X286940625Y-124556250D03*
X305990625Y-127856250D03*
X305990625Y-124556250D03*
X325040625Y-127856250D03*
X325040625Y-124556250D03*
X348853125Y-127856250D03*
X348853125Y-124556250D03*
X372665625Y-127856250D03*
X372665625Y-124556250D03*
X89296875Y-146906250D03*
X89296875Y-143606250D03*
X120253125Y-146906250D03*
X120253125Y-143606250D03*
X139303125Y-146906250D03*
X139303125Y-143606250D03*
X158353125Y-146906250D03*
X158353125Y-143606250D03*
X177403125Y-146906250D03*
X177403125Y-143606250D03*
X196453125Y-146906250D03*
X196453125Y-143606250D03*
X215503125Y-146906250D03*
X215503125Y-143606250D03*
X234553125Y-146906250D03*
X234553125Y-143606250D03*
X253603125Y-146906250D03*
X253603125Y-143606250D03*
X272653125Y-146906250D03*
X272653125Y-143606250D03*
X291703125Y-146906250D03*
X291703125Y-143606250D03*
X310753125Y-146906250D03*
X310753125Y-143606250D03*
X341709375Y-146906250D03*
X341709375Y-143606250D03*
X372665625Y-146906250D03*
X372665625Y-143606250D03*
X98821875Y-165956250D03*
X98821875Y-162656250D03*
X129778125Y-165956250D03*
X129778125Y-162656250D03*
X148828125Y-165956250D03*
X148828125Y-162656250D03*
X167878125Y-165956250D03*
X167878125Y-162656250D03*
X186928125Y-165956250D03*
X186928125Y-162656250D03*
X205978125Y-165956250D03*
X205978125Y-162656250D03*
X225028125Y-165956250D03*
X225028125Y-162656250D03*
X244078125Y-165956250D03*
X244078125Y-162656250D03*
X263128125Y-165956250D03*
X263128125Y-162656250D03*
X282178125Y-165956250D03*
X282178125Y-162656250D03*
X301228125Y-165956250D03*
X301228125Y-162656250D03*
X327421875Y-165956250D03*
X327421875Y-162656250D03*
X353615625Y-165956250D03*
X353615625Y-162656250D03*
X372665625Y-165956250D03*
X372665625Y-162656250D03*
X91678125Y-185006250D03*
X91678125Y-181706250D03*
X115490625Y-185006250D03*
X115490625Y-181706250D03*
X139303125Y-185006250D03*
X139303125Y-181706250D03*
X220265625Y-185006250D03*
X220265625Y-181706250D03*
X301228125Y-185006250D03*
X301228125Y-181706250D03*
X334565625Y-185006250D03*
X334565625Y-181706250D03*
X353615625Y-185006250D03*
X353615625Y-181706250D03*
X372665625Y-185006250D03*
X372665625Y-181706250D03*
D18*
X233150000Y-99750000D03*
X233650000Y-99750000D03*
X234150000Y-99750000D03*
X232650000Y-99750000D03*
X234650000Y-99750000D03*
X232150000Y-99750000D03*
X235150000Y-99750000D03*
X231650000Y-99750000D03*
D19*
X230950000Y-99750000D03*
X235850000Y-99750000D03*
X230175000Y-99750000D03*
X236625000Y-99750000D03*
M02*
