G04 #@! TF.FileFunction,Legend,Bot*
%FSLAX46Y46*%
G04 Gerber Fmt 4.6, Leading zero omitted, Abs format (unit mm)*
G04 Created by KiCad (PCBNEW 4.0.7) date 02/25/19 20:16:44*
%MOMM*%
%LPD*%
G01*
G04 APERTURE LIST*
%ADD10C,0.100000*%
%ADD11C,0.120000*%
%ADD12C,0.150000*%
%ADD13C,0.200000*%
G04 APERTURE END LIST*
D10*
D11*
X373662500Y-111150000D02*
X371662500Y-111150000D01*
X371662500Y-111150000D02*
X371662500Y-107250000D01*
X373662500Y-111150000D02*
X373662500Y-107250000D01*
X248306250Y-175206250D02*
X248306250Y-174506250D01*
X247106250Y-174506250D02*
X247106250Y-175206250D01*
X247106250Y-181806250D02*
X247106250Y-182506250D01*
X248306250Y-182506250D02*
X248306250Y-181806250D01*
X261406250Y-187306250D02*
X260706250Y-187306250D01*
X260706250Y-188506250D02*
X261406250Y-188506250D01*
X261006250Y-168706250D02*
X260306250Y-168706250D01*
X260306250Y-169906250D02*
X261006250Y-169906250D01*
X251006250Y-168906250D02*
X251706250Y-168906250D01*
X251706250Y-167706250D02*
X251006250Y-167706250D01*
X258906250Y-168306250D02*
X258906250Y-167606250D01*
X257706250Y-167606250D02*
X257706250Y-168306250D01*
X271556250Y-176506250D02*
X272256250Y-176506250D01*
X272256250Y-175306250D02*
X271556250Y-175306250D01*
X272256250Y-181306250D02*
X271556250Y-181306250D01*
X271556250Y-182506250D02*
X272256250Y-182506250D01*
X231036250Y-105406250D02*
X231036250Y-104406250D01*
X229676250Y-104406250D02*
X229676250Y-105406250D01*
X236886250Y-105406250D02*
X236886250Y-104406250D01*
X235526250Y-104406250D02*
X235526250Y-105406250D01*
X254880000Y-168400000D02*
X254880000Y-167400000D01*
X253520000Y-167400000D02*
X253520000Y-168400000D01*
X257280000Y-168400000D02*
X257280000Y-167400000D01*
X255920000Y-167400000D02*
X255920000Y-168400000D01*
X266020000Y-174612500D02*
X266020000Y-175612500D01*
X267380000Y-175612500D02*
X267380000Y-174612500D01*
X246880000Y-182700000D02*
X246880000Y-181700000D01*
X245520000Y-181700000D02*
X245520000Y-182700000D01*
D12*
X252225000Y-173418750D02*
X252800000Y-173418750D01*
X252225000Y-183768750D02*
X252900000Y-183768750D01*
X262575000Y-183768750D02*
X261900000Y-183768750D01*
X262575000Y-173418750D02*
X261900000Y-173418750D01*
X252225000Y-173418750D02*
X252225000Y-174093750D01*
X262575000Y-173418750D02*
X262575000Y-174093750D01*
X262575000Y-183768750D02*
X262575000Y-183093750D01*
X252225000Y-183768750D02*
X252225000Y-183093750D01*
X252800000Y-173418750D02*
X252800000Y-172143750D01*
D13*
X269731250Y-176831250D02*
X269731250Y-180581250D01*
X269731250Y-180581250D02*
X274481250Y-180581250D01*
X274481250Y-180581250D02*
X274481250Y-176831250D01*
X274481250Y-176831250D02*
X269731250Y-176831250D01*
D11*
X87915698Y-109406340D02*
X85915698Y-109406340D01*
X85915698Y-109406340D02*
X85915698Y-105506340D01*
X87915698Y-109406340D02*
X87915698Y-105506340D01*
X106965714Y-109406340D02*
X104965714Y-109406340D01*
X104965714Y-109406340D02*
X104965714Y-105506340D01*
X106965714Y-109406340D02*
X106965714Y-105506340D01*
X126015625Y-109406250D02*
X124015625Y-109406250D01*
X124015625Y-109406250D02*
X124015625Y-105506250D01*
X126015625Y-109406250D02*
X126015625Y-105506250D01*
X145065625Y-109406250D02*
X143065625Y-109406250D01*
X143065625Y-109406250D02*
X143065625Y-105506250D01*
X145065625Y-109406250D02*
X145065625Y-105506250D01*
X164115625Y-109406250D02*
X162115625Y-109406250D01*
X162115625Y-109406250D02*
X162115625Y-105506250D01*
X164115625Y-109406250D02*
X164115625Y-105506250D01*
X183165625Y-109406250D02*
X181165625Y-109406250D01*
X181165625Y-109406250D02*
X181165625Y-105506250D01*
X183165625Y-109406250D02*
X183165625Y-105506250D01*
X202215625Y-109406250D02*
X200215625Y-109406250D01*
X200215625Y-109406250D02*
X200215625Y-105506250D01*
X202215625Y-109406250D02*
X202215625Y-105506250D01*
X221265625Y-109406250D02*
X219265625Y-109406250D01*
X219265625Y-109406250D02*
X219265625Y-105506250D01*
X221265625Y-109406250D02*
X221265625Y-105506250D01*
X240315625Y-109406250D02*
X238315625Y-109406250D01*
X238315625Y-109406250D02*
X238315625Y-105506250D01*
X240315625Y-109406250D02*
X240315625Y-105506250D01*
X259365625Y-109406250D02*
X257365625Y-109406250D01*
X257365625Y-109406250D02*
X257365625Y-105506250D01*
X259365625Y-109406250D02*
X259365625Y-105506250D01*
X278415625Y-109406250D02*
X276415625Y-109406250D01*
X276415625Y-109406250D02*
X276415625Y-105506250D01*
X278415625Y-109406250D02*
X278415625Y-105506250D01*
X297465625Y-109406250D02*
X295465625Y-109406250D01*
X295465625Y-109406250D02*
X295465625Y-105506250D01*
X297465625Y-109406250D02*
X297465625Y-105506250D01*
X316515625Y-109406250D02*
X314515625Y-109406250D01*
X314515625Y-109406250D02*
X314515625Y-105506250D01*
X316515625Y-109406250D02*
X316515625Y-105506250D01*
X335565625Y-109406250D02*
X333565625Y-109406250D01*
X333565625Y-109406250D02*
X333565625Y-105506250D01*
X335565625Y-109406250D02*
X335565625Y-105506250D01*
X354615625Y-109406250D02*
X352615625Y-109406250D01*
X352615625Y-109406250D02*
X352615625Y-105506250D01*
X354615625Y-109406250D02*
X354615625Y-105506250D01*
X92678125Y-128456250D02*
X90678125Y-128456250D01*
X90678125Y-128456250D02*
X90678125Y-124556250D01*
X92678125Y-128456250D02*
X92678125Y-124556250D01*
X116490625Y-128456250D02*
X114490625Y-128456250D01*
X114490625Y-128456250D02*
X114490625Y-124556250D01*
X116490625Y-128456250D02*
X116490625Y-124556250D01*
X135540625Y-128456250D02*
X133540625Y-128456250D01*
X133540625Y-128456250D02*
X133540625Y-124556250D01*
X135540625Y-128456250D02*
X135540625Y-124556250D01*
X154590625Y-128456250D02*
X152590625Y-128456250D01*
X152590625Y-128456250D02*
X152590625Y-124556250D01*
X154590625Y-128456250D02*
X154590625Y-124556250D01*
X173640625Y-128456250D02*
X171640625Y-128456250D01*
X171640625Y-128456250D02*
X171640625Y-124556250D01*
X173640625Y-128456250D02*
X173640625Y-124556250D01*
X192690625Y-128456250D02*
X190690625Y-128456250D01*
X190690625Y-128456250D02*
X190690625Y-124556250D01*
X192690625Y-128456250D02*
X192690625Y-124556250D01*
X211740625Y-128456250D02*
X209740625Y-128456250D01*
X209740625Y-128456250D02*
X209740625Y-124556250D01*
X211740625Y-128456250D02*
X211740625Y-124556250D01*
X230790625Y-128456250D02*
X228790625Y-128456250D01*
X228790625Y-128456250D02*
X228790625Y-124556250D01*
X230790625Y-128456250D02*
X230790625Y-124556250D01*
X249840625Y-128456250D02*
X247840625Y-128456250D01*
X247840625Y-128456250D02*
X247840625Y-124556250D01*
X249840625Y-128456250D02*
X249840625Y-124556250D01*
X268890625Y-128456250D02*
X266890625Y-128456250D01*
X266890625Y-128456250D02*
X266890625Y-124556250D01*
X268890625Y-128456250D02*
X268890625Y-124556250D01*
X287940625Y-128456250D02*
X285940625Y-128456250D01*
X285940625Y-128456250D02*
X285940625Y-124556250D01*
X287940625Y-128456250D02*
X287940625Y-124556250D01*
X306990625Y-128456250D02*
X304990625Y-128456250D01*
X304990625Y-128456250D02*
X304990625Y-124556250D01*
X306990625Y-128456250D02*
X306990625Y-124556250D01*
X326040625Y-128456250D02*
X324040625Y-128456250D01*
X324040625Y-128456250D02*
X324040625Y-124556250D01*
X326040625Y-128456250D02*
X326040625Y-124556250D01*
X349853125Y-128456250D02*
X347853125Y-128456250D01*
X347853125Y-128456250D02*
X347853125Y-124556250D01*
X349853125Y-128456250D02*
X349853125Y-124556250D01*
X373665625Y-128456250D02*
X371665625Y-128456250D01*
X371665625Y-128456250D02*
X371665625Y-124556250D01*
X373665625Y-128456250D02*
X373665625Y-124556250D01*
X90296875Y-147506250D02*
X88296875Y-147506250D01*
X88296875Y-147506250D02*
X88296875Y-143606250D01*
X90296875Y-147506250D02*
X90296875Y-143606250D01*
X121253125Y-147506250D02*
X119253125Y-147506250D01*
X119253125Y-147506250D02*
X119253125Y-143606250D01*
X121253125Y-147506250D02*
X121253125Y-143606250D01*
X140303125Y-147506250D02*
X138303125Y-147506250D01*
X138303125Y-147506250D02*
X138303125Y-143606250D01*
X140303125Y-147506250D02*
X140303125Y-143606250D01*
X159353125Y-147506250D02*
X157353125Y-147506250D01*
X157353125Y-147506250D02*
X157353125Y-143606250D01*
X159353125Y-147506250D02*
X159353125Y-143606250D01*
X178403125Y-147506250D02*
X176403125Y-147506250D01*
X176403125Y-147506250D02*
X176403125Y-143606250D01*
X178403125Y-147506250D02*
X178403125Y-143606250D01*
X197453125Y-147506250D02*
X195453125Y-147506250D01*
X195453125Y-147506250D02*
X195453125Y-143606250D01*
X197453125Y-147506250D02*
X197453125Y-143606250D01*
X216503125Y-147506250D02*
X214503125Y-147506250D01*
X214503125Y-147506250D02*
X214503125Y-143606250D01*
X216503125Y-147506250D02*
X216503125Y-143606250D01*
X235553125Y-147506250D02*
X233553125Y-147506250D01*
X233553125Y-147506250D02*
X233553125Y-143606250D01*
X235553125Y-147506250D02*
X235553125Y-143606250D01*
X254603125Y-147506250D02*
X252603125Y-147506250D01*
X252603125Y-147506250D02*
X252603125Y-143606250D01*
X254603125Y-147506250D02*
X254603125Y-143606250D01*
X273653125Y-147506250D02*
X271653125Y-147506250D01*
X271653125Y-147506250D02*
X271653125Y-143606250D01*
X273653125Y-147506250D02*
X273653125Y-143606250D01*
X292703125Y-147506250D02*
X290703125Y-147506250D01*
X290703125Y-147506250D02*
X290703125Y-143606250D01*
X292703125Y-147506250D02*
X292703125Y-143606250D01*
X311753125Y-147506250D02*
X309753125Y-147506250D01*
X309753125Y-147506250D02*
X309753125Y-143606250D01*
X311753125Y-147506250D02*
X311753125Y-143606250D01*
X342709375Y-147506250D02*
X340709375Y-147506250D01*
X340709375Y-147506250D02*
X340709375Y-143606250D01*
X342709375Y-147506250D02*
X342709375Y-143606250D01*
X373665625Y-147506250D02*
X371665625Y-147506250D01*
X371665625Y-147506250D02*
X371665625Y-143606250D01*
X373665625Y-147506250D02*
X373665625Y-143606250D01*
X99821875Y-166556250D02*
X97821875Y-166556250D01*
X97821875Y-166556250D02*
X97821875Y-162656250D01*
X99821875Y-166556250D02*
X99821875Y-162656250D01*
X130778125Y-166556250D02*
X128778125Y-166556250D01*
X128778125Y-166556250D02*
X128778125Y-162656250D01*
X130778125Y-166556250D02*
X130778125Y-162656250D01*
X149828125Y-166556250D02*
X147828125Y-166556250D01*
X147828125Y-166556250D02*
X147828125Y-162656250D01*
X149828125Y-166556250D02*
X149828125Y-162656250D01*
X168878125Y-166556250D02*
X166878125Y-166556250D01*
X166878125Y-166556250D02*
X166878125Y-162656250D01*
X168878125Y-166556250D02*
X168878125Y-162656250D01*
X187928125Y-166556250D02*
X185928125Y-166556250D01*
X185928125Y-166556250D02*
X185928125Y-162656250D01*
X187928125Y-166556250D02*
X187928125Y-162656250D01*
X206978125Y-166556250D02*
X204978125Y-166556250D01*
X204978125Y-166556250D02*
X204978125Y-162656250D01*
X206978125Y-166556250D02*
X206978125Y-162656250D01*
X226028125Y-166556250D02*
X224028125Y-166556250D01*
X224028125Y-166556250D02*
X224028125Y-162656250D01*
X226028125Y-166556250D02*
X226028125Y-162656250D01*
X245078125Y-166556250D02*
X243078125Y-166556250D01*
X243078125Y-166556250D02*
X243078125Y-162656250D01*
X245078125Y-166556250D02*
X245078125Y-162656250D01*
X264128125Y-166556250D02*
X262128125Y-166556250D01*
X262128125Y-166556250D02*
X262128125Y-162656250D01*
X264128125Y-166556250D02*
X264128125Y-162656250D01*
X283178125Y-166556250D02*
X281178125Y-166556250D01*
X281178125Y-166556250D02*
X281178125Y-162656250D01*
X283178125Y-166556250D02*
X283178125Y-162656250D01*
X302228125Y-166556250D02*
X300228125Y-166556250D01*
X300228125Y-166556250D02*
X300228125Y-162656250D01*
X302228125Y-166556250D02*
X302228125Y-162656250D01*
X328421875Y-166556250D02*
X326421875Y-166556250D01*
X326421875Y-166556250D02*
X326421875Y-162656250D01*
X328421875Y-166556250D02*
X328421875Y-162656250D01*
X354615625Y-166556250D02*
X352615625Y-166556250D01*
X352615625Y-166556250D02*
X352615625Y-162656250D01*
X354615625Y-166556250D02*
X354615625Y-162656250D01*
X373665625Y-166556250D02*
X371665625Y-166556250D01*
X371665625Y-166556250D02*
X371665625Y-162656250D01*
X373665625Y-166556250D02*
X373665625Y-162656250D01*
X92678125Y-185606250D02*
X90678125Y-185606250D01*
X90678125Y-185606250D02*
X90678125Y-181706250D01*
X92678125Y-185606250D02*
X92678125Y-181706250D01*
X116490625Y-185606250D02*
X114490625Y-185606250D01*
X114490625Y-185606250D02*
X114490625Y-181706250D01*
X116490625Y-185606250D02*
X116490625Y-181706250D01*
X140303125Y-185606250D02*
X138303125Y-185606250D01*
X138303125Y-185606250D02*
X138303125Y-181706250D01*
X140303125Y-185606250D02*
X140303125Y-181706250D01*
X221265625Y-185606250D02*
X219265625Y-185606250D01*
X219265625Y-185606250D02*
X219265625Y-181706250D01*
X221265625Y-185606250D02*
X221265625Y-181706250D01*
X302228125Y-185606250D02*
X300228125Y-185606250D01*
X300228125Y-185606250D02*
X300228125Y-181706250D01*
X302228125Y-185606250D02*
X302228125Y-181706250D01*
X335565625Y-185606250D02*
X333565625Y-185606250D01*
X333565625Y-185606250D02*
X333565625Y-181706250D01*
X335565625Y-185606250D02*
X335565625Y-181706250D01*
X354615625Y-185606250D02*
X352615625Y-185606250D01*
X352615625Y-185606250D02*
X352615625Y-181706250D01*
X354615625Y-185606250D02*
X354615625Y-181706250D01*
X373665625Y-185606250D02*
X371665625Y-185606250D01*
X371665625Y-185606250D02*
X371665625Y-181706250D01*
X373665625Y-185606250D02*
X373665625Y-181706250D01*
D12*
X375114881Y-107685714D02*
X374114881Y-107685714D01*
X374114881Y-107923809D01*
X374162500Y-108066667D01*
X374257738Y-108161905D01*
X374352976Y-108209524D01*
X374543452Y-108257143D01*
X374686310Y-108257143D01*
X374876786Y-108209524D01*
X374972024Y-108161905D01*
X375067262Y-108066667D01*
X375114881Y-107923809D01*
X375114881Y-107685714D01*
X374448214Y-109114286D02*
X375114881Y-109114286D01*
X374067262Y-108876190D02*
X374781548Y-108638095D01*
X374781548Y-109257143D01*
X374448214Y-110066667D02*
X375114881Y-110066667D01*
X374067262Y-109828571D02*
X374781548Y-109590476D01*
X374781548Y-110209524D01*
X247872916Y-172763393D02*
X247920535Y-172811012D01*
X248063392Y-172858631D01*
X248158630Y-172858631D01*
X248301488Y-172811012D01*
X248396726Y-172715774D01*
X248444345Y-172620536D01*
X248491964Y-172430060D01*
X248491964Y-172287202D01*
X248444345Y-172096726D01*
X248396726Y-172001488D01*
X248301488Y-171906250D01*
X248158630Y-171858631D01*
X248063392Y-171858631D01*
X247920535Y-171906250D01*
X247872916Y-171953869D01*
X246920535Y-172858631D02*
X247491964Y-172858631D01*
X247206250Y-172858631D02*
X247206250Y-171858631D01*
X247301488Y-172001488D01*
X247396726Y-172096726D01*
X247491964Y-172144345D01*
X248016666Y-180107143D02*
X248064285Y-180154762D01*
X248207142Y-180202381D01*
X248302380Y-180202381D01*
X248445238Y-180154762D01*
X248540476Y-180059524D01*
X248588095Y-179964286D01*
X248635714Y-179773810D01*
X248635714Y-179630952D01*
X248588095Y-179440476D01*
X248540476Y-179345238D01*
X248445238Y-179250000D01*
X248302380Y-179202381D01*
X248207142Y-179202381D01*
X248064285Y-179250000D01*
X248016666Y-179297619D01*
X247635714Y-179297619D02*
X247588095Y-179250000D01*
X247492857Y-179202381D01*
X247254761Y-179202381D01*
X247159523Y-179250000D01*
X247111904Y-179297619D01*
X247064285Y-179392857D01*
X247064285Y-179488095D01*
X247111904Y-179630952D01*
X247683333Y-180202381D01*
X247064285Y-180202381D01*
X261222916Y-187013393D02*
X261270535Y-187061012D01*
X261413392Y-187108631D01*
X261508630Y-187108631D01*
X261651488Y-187061012D01*
X261746726Y-186965774D01*
X261794345Y-186870536D01*
X261841964Y-186680060D01*
X261841964Y-186537202D01*
X261794345Y-186346726D01*
X261746726Y-186251488D01*
X261651488Y-186156250D01*
X261508630Y-186108631D01*
X261413392Y-186108631D01*
X261270535Y-186156250D01*
X261222916Y-186203869D01*
X260889583Y-186108631D02*
X260270535Y-186108631D01*
X260603869Y-186489583D01*
X260461011Y-186489583D01*
X260365773Y-186537202D01*
X260318154Y-186584821D01*
X260270535Y-186680060D01*
X260270535Y-186918155D01*
X260318154Y-187013393D01*
X260365773Y-187061012D01*
X260461011Y-187108631D01*
X260746726Y-187108631D01*
X260841964Y-187061012D01*
X260889583Y-187013393D01*
X263472916Y-169663393D02*
X263520535Y-169711012D01*
X263663392Y-169758631D01*
X263758630Y-169758631D01*
X263901488Y-169711012D01*
X263996726Y-169615774D01*
X264044345Y-169520536D01*
X264091964Y-169330060D01*
X264091964Y-169187202D01*
X264044345Y-168996726D01*
X263996726Y-168901488D01*
X263901488Y-168806250D01*
X263758630Y-168758631D01*
X263663392Y-168758631D01*
X263520535Y-168806250D01*
X263472916Y-168853869D01*
X262615773Y-169091964D02*
X262615773Y-169758631D01*
X262853869Y-168711012D02*
X263091964Y-169425298D01*
X262472916Y-169425298D01*
X251472916Y-167463393D02*
X251520535Y-167511012D01*
X251663392Y-167558631D01*
X251758630Y-167558631D01*
X251901488Y-167511012D01*
X251996726Y-167415774D01*
X252044345Y-167320536D01*
X252091964Y-167130060D01*
X252091964Y-166987202D01*
X252044345Y-166796726D01*
X251996726Y-166701488D01*
X251901488Y-166606250D01*
X251758630Y-166558631D01*
X251663392Y-166558631D01*
X251520535Y-166606250D01*
X251472916Y-166653869D01*
X250568154Y-166558631D02*
X251044345Y-166558631D01*
X251091964Y-167034821D01*
X251044345Y-166987202D01*
X250949107Y-166939583D01*
X250711011Y-166939583D01*
X250615773Y-166987202D01*
X250568154Y-167034821D01*
X250520535Y-167130060D01*
X250520535Y-167368155D01*
X250568154Y-167463393D01*
X250615773Y-167511012D01*
X250711011Y-167558631D01*
X250949107Y-167558631D01*
X251044345Y-167511012D01*
X251091964Y-167463393D01*
X260066666Y-166607143D02*
X260114285Y-166654762D01*
X260257142Y-166702381D01*
X260352380Y-166702381D01*
X260495238Y-166654762D01*
X260590476Y-166559524D01*
X260638095Y-166464286D01*
X260685714Y-166273810D01*
X260685714Y-166130952D01*
X260638095Y-165940476D01*
X260590476Y-165845238D01*
X260495238Y-165750000D01*
X260352380Y-165702381D01*
X260257142Y-165702381D01*
X260114285Y-165750000D01*
X260066666Y-165797619D01*
X259209523Y-165702381D02*
X259400000Y-165702381D01*
X259495238Y-165750000D01*
X259542857Y-165797619D01*
X259638095Y-165940476D01*
X259685714Y-166130952D01*
X259685714Y-166511905D01*
X259638095Y-166607143D01*
X259590476Y-166654762D01*
X259495238Y-166702381D01*
X259304761Y-166702381D01*
X259209523Y-166654762D01*
X259161904Y-166607143D01*
X259114285Y-166511905D01*
X259114285Y-166273810D01*
X259161904Y-166178571D01*
X259209523Y-166130952D01*
X259304761Y-166083333D01*
X259495238Y-166083333D01*
X259590476Y-166130952D01*
X259638095Y-166178571D01*
X259685714Y-166273810D01*
X274772916Y-176363393D02*
X274820535Y-176411012D01*
X274963392Y-176458631D01*
X275058630Y-176458631D01*
X275201488Y-176411012D01*
X275296726Y-176315774D01*
X275344345Y-176220536D01*
X275391964Y-176030060D01*
X275391964Y-175887202D01*
X275344345Y-175696726D01*
X275296726Y-175601488D01*
X275201488Y-175506250D01*
X275058630Y-175458631D01*
X274963392Y-175458631D01*
X274820535Y-175506250D01*
X274772916Y-175553869D01*
X274439583Y-175458631D02*
X273772916Y-175458631D01*
X274201488Y-176458631D01*
X274872916Y-182263393D02*
X274920535Y-182311012D01*
X275063392Y-182358631D01*
X275158630Y-182358631D01*
X275301488Y-182311012D01*
X275396726Y-182215774D01*
X275444345Y-182120536D01*
X275491964Y-181930060D01*
X275491964Y-181787202D01*
X275444345Y-181596726D01*
X275396726Y-181501488D01*
X275301488Y-181406250D01*
X275158630Y-181358631D01*
X275063392Y-181358631D01*
X274920535Y-181406250D01*
X274872916Y-181453869D01*
X274301488Y-181787202D02*
X274396726Y-181739583D01*
X274444345Y-181691964D01*
X274491964Y-181596726D01*
X274491964Y-181549107D01*
X274444345Y-181453869D01*
X274396726Y-181406250D01*
X274301488Y-181358631D01*
X274111011Y-181358631D01*
X274015773Y-181406250D01*
X273968154Y-181453869D01*
X273920535Y-181549107D01*
X273920535Y-181596726D01*
X273968154Y-181691964D01*
X274015773Y-181739583D01*
X274111011Y-181787202D01*
X274301488Y-181787202D01*
X274396726Y-181834821D01*
X274444345Y-181882440D01*
X274491964Y-181977679D01*
X274491964Y-182168155D01*
X274444345Y-182263393D01*
X274396726Y-182311012D01*
X274301488Y-182358631D01*
X274111011Y-182358631D01*
X274015773Y-182311012D01*
X273968154Y-182263393D01*
X273920535Y-182168155D01*
X273920535Y-181977679D01*
X273968154Y-181882440D01*
X274015773Y-181834821D01*
X274111011Y-181787202D01*
X229302381Y-106433334D02*
X228826190Y-106100000D01*
X229302381Y-105861905D02*
X228302381Y-105861905D01*
X228302381Y-106242858D01*
X228350000Y-106338096D01*
X228397619Y-106385715D01*
X228492857Y-106433334D01*
X228635714Y-106433334D01*
X228730952Y-106385715D01*
X228778571Y-106338096D01*
X228826190Y-106242858D01*
X228826190Y-105861905D01*
X229302381Y-107385715D02*
X229302381Y-106814286D01*
X229302381Y-107100000D02*
X228302381Y-107100000D01*
X228445238Y-107004762D01*
X228540476Y-106909524D01*
X228588095Y-106814286D01*
X238052381Y-106383334D02*
X237576190Y-106050000D01*
X238052381Y-105811905D02*
X237052381Y-105811905D01*
X237052381Y-106192858D01*
X237100000Y-106288096D01*
X237147619Y-106335715D01*
X237242857Y-106383334D01*
X237385714Y-106383334D01*
X237480952Y-106335715D01*
X237528571Y-106288096D01*
X237576190Y-106192858D01*
X237576190Y-105811905D01*
X237147619Y-106764286D02*
X237100000Y-106811905D01*
X237052381Y-106907143D01*
X237052381Y-107145239D01*
X237100000Y-107240477D01*
X237147619Y-107288096D01*
X237242857Y-107335715D01*
X237338095Y-107335715D01*
X237480952Y-107288096D01*
X238052381Y-106716667D01*
X238052381Y-107335715D01*
X254372916Y-165758631D02*
X254706250Y-165282440D01*
X254944345Y-165758631D02*
X254944345Y-164758631D01*
X254563392Y-164758631D01*
X254468154Y-164806250D01*
X254420535Y-164853869D01*
X254372916Y-164949107D01*
X254372916Y-165091964D01*
X254420535Y-165187202D01*
X254468154Y-165234821D01*
X254563392Y-165282440D01*
X254944345Y-165282440D01*
X254039583Y-164758631D02*
X253420535Y-164758631D01*
X253753869Y-165139583D01*
X253611011Y-165139583D01*
X253515773Y-165187202D01*
X253468154Y-165234821D01*
X253420535Y-165330060D01*
X253420535Y-165568155D01*
X253468154Y-165663393D01*
X253515773Y-165711012D01*
X253611011Y-165758631D01*
X253896726Y-165758631D01*
X253991964Y-165711012D01*
X254039583Y-165663393D01*
X256772916Y-165758631D02*
X257106250Y-165282440D01*
X257344345Y-165758631D02*
X257344345Y-164758631D01*
X256963392Y-164758631D01*
X256868154Y-164806250D01*
X256820535Y-164853869D01*
X256772916Y-164949107D01*
X256772916Y-165091964D01*
X256820535Y-165187202D01*
X256868154Y-165234821D01*
X256963392Y-165282440D01*
X257344345Y-165282440D01*
X255915773Y-165091964D02*
X255915773Y-165758631D01*
X256153869Y-164711012D02*
X256391964Y-165425298D01*
X255772916Y-165425298D01*
X268602381Y-174945834D02*
X268126190Y-174612500D01*
X268602381Y-174374405D02*
X267602381Y-174374405D01*
X267602381Y-174755358D01*
X267650000Y-174850596D01*
X267697619Y-174898215D01*
X267792857Y-174945834D01*
X267935714Y-174945834D01*
X268030952Y-174898215D01*
X268078571Y-174850596D01*
X268126190Y-174755358D01*
X268126190Y-174374405D01*
X267602381Y-175850596D02*
X267602381Y-175374405D01*
X268078571Y-175326786D01*
X268030952Y-175374405D01*
X267983333Y-175469643D01*
X267983333Y-175707739D01*
X268030952Y-175802977D01*
X268078571Y-175850596D01*
X268173810Y-175898215D01*
X268411905Y-175898215D01*
X268507143Y-175850596D01*
X268554762Y-175802977D01*
X268602381Y-175707739D01*
X268602381Y-175469643D01*
X268554762Y-175374405D01*
X268507143Y-175326786D01*
X246016666Y-180102381D02*
X246350000Y-179626190D01*
X246588095Y-180102381D02*
X246588095Y-179102381D01*
X246207142Y-179102381D01*
X246111904Y-179150000D01*
X246064285Y-179197619D01*
X246016666Y-179292857D01*
X246016666Y-179435714D01*
X246064285Y-179530952D01*
X246111904Y-179578571D01*
X246207142Y-179626190D01*
X246588095Y-179626190D01*
X245159523Y-179102381D02*
X245350000Y-179102381D01*
X245445238Y-179150000D01*
X245492857Y-179197619D01*
X245588095Y-179340476D01*
X245635714Y-179530952D01*
X245635714Y-179911905D01*
X245588095Y-180007143D01*
X245540476Y-180054762D01*
X245445238Y-180102381D01*
X245254761Y-180102381D01*
X245159523Y-180054762D01*
X245111904Y-180007143D01*
X245064285Y-179911905D01*
X245064285Y-179673810D01*
X245111904Y-179578571D01*
X245159523Y-179530952D01*
X245254761Y-179483333D01*
X245445238Y-179483333D01*
X245540476Y-179530952D01*
X245588095Y-179578571D01*
X245635714Y-179673810D01*
X252368155Y-172158631D02*
X252368155Y-172968155D01*
X252320536Y-173063393D01*
X252272917Y-173111012D01*
X252177679Y-173158631D01*
X251987202Y-173158631D01*
X251891964Y-173111012D01*
X251844345Y-173063393D01*
X251796726Y-172968155D01*
X251796726Y-172158631D01*
X250796726Y-173158631D02*
X251368155Y-173158631D01*
X251082441Y-173158631D02*
X251082441Y-172158631D01*
X251177679Y-172301488D01*
X251272917Y-172396726D01*
X251368155Y-172444345D01*
X89368079Y-106418245D02*
X88368079Y-106418245D01*
X88368079Y-106656340D01*
X88415698Y-106799198D01*
X88510936Y-106894436D01*
X88606174Y-106942055D01*
X88796650Y-106989674D01*
X88939508Y-106989674D01*
X89129984Y-106942055D01*
X89225222Y-106894436D01*
X89320460Y-106799198D01*
X89368079Y-106656340D01*
X89368079Y-106418245D01*
X89368079Y-107942055D02*
X89368079Y-107370626D01*
X89368079Y-107656340D02*
X88368079Y-107656340D01*
X88510936Y-107561102D01*
X88606174Y-107465864D01*
X88653793Y-107370626D01*
X108418095Y-106418245D02*
X107418095Y-106418245D01*
X107418095Y-106656340D01*
X107465714Y-106799198D01*
X107560952Y-106894436D01*
X107656190Y-106942055D01*
X107846666Y-106989674D01*
X107989524Y-106989674D01*
X108180000Y-106942055D01*
X108275238Y-106894436D01*
X108370476Y-106799198D01*
X108418095Y-106656340D01*
X108418095Y-106418245D01*
X107513333Y-107370626D02*
X107465714Y-107418245D01*
X107418095Y-107513483D01*
X107418095Y-107751579D01*
X107465714Y-107846817D01*
X107513333Y-107894436D01*
X107608571Y-107942055D01*
X107703809Y-107942055D01*
X107846666Y-107894436D01*
X108418095Y-107323007D01*
X108418095Y-107942055D01*
X127468006Y-106418155D02*
X126468006Y-106418155D01*
X126468006Y-106656250D01*
X126515625Y-106799108D01*
X126610863Y-106894346D01*
X126706101Y-106941965D01*
X126896577Y-106989584D01*
X127039435Y-106989584D01*
X127229911Y-106941965D01*
X127325149Y-106894346D01*
X127420387Y-106799108D01*
X127468006Y-106656250D01*
X127468006Y-106418155D01*
X126468006Y-107322917D02*
X126468006Y-107941965D01*
X126848958Y-107608631D01*
X126848958Y-107751489D01*
X126896577Y-107846727D01*
X126944196Y-107894346D01*
X127039435Y-107941965D01*
X127277530Y-107941965D01*
X127372768Y-107894346D01*
X127420387Y-107846727D01*
X127468006Y-107751489D01*
X127468006Y-107465774D01*
X127420387Y-107370536D01*
X127372768Y-107322917D01*
X146518006Y-106418155D02*
X145518006Y-106418155D01*
X145518006Y-106656250D01*
X145565625Y-106799108D01*
X145660863Y-106894346D01*
X145756101Y-106941965D01*
X145946577Y-106989584D01*
X146089435Y-106989584D01*
X146279911Y-106941965D01*
X146375149Y-106894346D01*
X146470387Y-106799108D01*
X146518006Y-106656250D01*
X146518006Y-106418155D01*
X145851339Y-107846727D02*
X146518006Y-107846727D01*
X145470387Y-107608631D02*
X146184673Y-107370536D01*
X146184673Y-107989584D01*
X165568006Y-106418155D02*
X164568006Y-106418155D01*
X164568006Y-106656250D01*
X164615625Y-106799108D01*
X164710863Y-106894346D01*
X164806101Y-106941965D01*
X164996577Y-106989584D01*
X165139435Y-106989584D01*
X165329911Y-106941965D01*
X165425149Y-106894346D01*
X165520387Y-106799108D01*
X165568006Y-106656250D01*
X165568006Y-106418155D01*
X164568006Y-107894346D02*
X164568006Y-107418155D01*
X165044196Y-107370536D01*
X164996577Y-107418155D01*
X164948958Y-107513393D01*
X164948958Y-107751489D01*
X164996577Y-107846727D01*
X165044196Y-107894346D01*
X165139435Y-107941965D01*
X165377530Y-107941965D01*
X165472768Y-107894346D01*
X165520387Y-107846727D01*
X165568006Y-107751489D01*
X165568006Y-107513393D01*
X165520387Y-107418155D01*
X165472768Y-107370536D01*
X184618006Y-106418155D02*
X183618006Y-106418155D01*
X183618006Y-106656250D01*
X183665625Y-106799108D01*
X183760863Y-106894346D01*
X183856101Y-106941965D01*
X184046577Y-106989584D01*
X184189435Y-106989584D01*
X184379911Y-106941965D01*
X184475149Y-106894346D01*
X184570387Y-106799108D01*
X184618006Y-106656250D01*
X184618006Y-106418155D01*
X183618006Y-107846727D02*
X183618006Y-107656250D01*
X183665625Y-107561012D01*
X183713244Y-107513393D01*
X183856101Y-107418155D01*
X184046577Y-107370536D01*
X184427530Y-107370536D01*
X184522768Y-107418155D01*
X184570387Y-107465774D01*
X184618006Y-107561012D01*
X184618006Y-107751489D01*
X184570387Y-107846727D01*
X184522768Y-107894346D01*
X184427530Y-107941965D01*
X184189435Y-107941965D01*
X184094196Y-107894346D01*
X184046577Y-107846727D01*
X183998958Y-107751489D01*
X183998958Y-107561012D01*
X184046577Y-107465774D01*
X184094196Y-107418155D01*
X184189435Y-107370536D01*
X203668006Y-106418155D02*
X202668006Y-106418155D01*
X202668006Y-106656250D01*
X202715625Y-106799108D01*
X202810863Y-106894346D01*
X202906101Y-106941965D01*
X203096577Y-106989584D01*
X203239435Y-106989584D01*
X203429911Y-106941965D01*
X203525149Y-106894346D01*
X203620387Y-106799108D01*
X203668006Y-106656250D01*
X203668006Y-106418155D01*
X202668006Y-107322917D02*
X202668006Y-107989584D01*
X203668006Y-107561012D01*
X222718006Y-106418155D02*
X221718006Y-106418155D01*
X221718006Y-106656250D01*
X221765625Y-106799108D01*
X221860863Y-106894346D01*
X221956101Y-106941965D01*
X222146577Y-106989584D01*
X222289435Y-106989584D01*
X222479911Y-106941965D01*
X222575149Y-106894346D01*
X222670387Y-106799108D01*
X222718006Y-106656250D01*
X222718006Y-106418155D01*
X222146577Y-107561012D02*
X222098958Y-107465774D01*
X222051339Y-107418155D01*
X221956101Y-107370536D01*
X221908482Y-107370536D01*
X221813244Y-107418155D01*
X221765625Y-107465774D01*
X221718006Y-107561012D01*
X221718006Y-107751489D01*
X221765625Y-107846727D01*
X221813244Y-107894346D01*
X221908482Y-107941965D01*
X221956101Y-107941965D01*
X222051339Y-107894346D01*
X222098958Y-107846727D01*
X222146577Y-107751489D01*
X222146577Y-107561012D01*
X222194196Y-107465774D01*
X222241815Y-107418155D01*
X222337054Y-107370536D01*
X222527530Y-107370536D01*
X222622768Y-107418155D01*
X222670387Y-107465774D01*
X222718006Y-107561012D01*
X222718006Y-107751489D01*
X222670387Y-107846727D01*
X222622768Y-107894346D01*
X222527530Y-107941965D01*
X222337054Y-107941965D01*
X222241815Y-107894346D01*
X222194196Y-107846727D01*
X222146577Y-107751489D01*
X241768006Y-106418155D02*
X240768006Y-106418155D01*
X240768006Y-106656250D01*
X240815625Y-106799108D01*
X240910863Y-106894346D01*
X241006101Y-106941965D01*
X241196577Y-106989584D01*
X241339435Y-106989584D01*
X241529911Y-106941965D01*
X241625149Y-106894346D01*
X241720387Y-106799108D01*
X241768006Y-106656250D01*
X241768006Y-106418155D01*
X241768006Y-107465774D02*
X241768006Y-107656250D01*
X241720387Y-107751489D01*
X241672768Y-107799108D01*
X241529911Y-107894346D01*
X241339435Y-107941965D01*
X240958482Y-107941965D01*
X240863244Y-107894346D01*
X240815625Y-107846727D01*
X240768006Y-107751489D01*
X240768006Y-107561012D01*
X240815625Y-107465774D01*
X240863244Y-107418155D01*
X240958482Y-107370536D01*
X241196577Y-107370536D01*
X241291815Y-107418155D01*
X241339435Y-107465774D01*
X241387054Y-107561012D01*
X241387054Y-107751489D01*
X241339435Y-107846727D01*
X241291815Y-107894346D01*
X241196577Y-107941965D01*
X260818006Y-105941964D02*
X259818006Y-105941964D01*
X259818006Y-106180059D01*
X259865625Y-106322917D01*
X259960863Y-106418155D01*
X260056101Y-106465774D01*
X260246577Y-106513393D01*
X260389435Y-106513393D01*
X260579911Y-106465774D01*
X260675149Y-106418155D01*
X260770387Y-106322917D01*
X260818006Y-106180059D01*
X260818006Y-105941964D01*
X260818006Y-107465774D02*
X260818006Y-106894345D01*
X260818006Y-107180059D02*
X259818006Y-107180059D01*
X259960863Y-107084821D01*
X260056101Y-106989583D01*
X260103720Y-106894345D01*
X259818006Y-108084821D02*
X259818006Y-108180060D01*
X259865625Y-108275298D01*
X259913244Y-108322917D01*
X260008482Y-108370536D01*
X260198958Y-108418155D01*
X260437054Y-108418155D01*
X260627530Y-108370536D01*
X260722768Y-108322917D01*
X260770387Y-108275298D01*
X260818006Y-108180060D01*
X260818006Y-108084821D01*
X260770387Y-107989583D01*
X260722768Y-107941964D01*
X260627530Y-107894345D01*
X260437054Y-107846726D01*
X260198958Y-107846726D01*
X260008482Y-107894345D01*
X259913244Y-107941964D01*
X259865625Y-107989583D01*
X259818006Y-108084821D01*
X279868006Y-105941964D02*
X278868006Y-105941964D01*
X278868006Y-106180059D01*
X278915625Y-106322917D01*
X279010863Y-106418155D01*
X279106101Y-106465774D01*
X279296577Y-106513393D01*
X279439435Y-106513393D01*
X279629911Y-106465774D01*
X279725149Y-106418155D01*
X279820387Y-106322917D01*
X279868006Y-106180059D01*
X279868006Y-105941964D01*
X279868006Y-107465774D02*
X279868006Y-106894345D01*
X279868006Y-107180059D02*
X278868006Y-107180059D01*
X279010863Y-107084821D01*
X279106101Y-106989583D01*
X279153720Y-106894345D01*
X279868006Y-108418155D02*
X279868006Y-107846726D01*
X279868006Y-108132440D02*
X278868006Y-108132440D01*
X279010863Y-108037202D01*
X279106101Y-107941964D01*
X279153720Y-107846726D01*
X298918006Y-105941964D02*
X297918006Y-105941964D01*
X297918006Y-106180059D01*
X297965625Y-106322917D01*
X298060863Y-106418155D01*
X298156101Y-106465774D01*
X298346577Y-106513393D01*
X298489435Y-106513393D01*
X298679911Y-106465774D01*
X298775149Y-106418155D01*
X298870387Y-106322917D01*
X298918006Y-106180059D01*
X298918006Y-105941964D01*
X298918006Y-107465774D02*
X298918006Y-106894345D01*
X298918006Y-107180059D02*
X297918006Y-107180059D01*
X298060863Y-107084821D01*
X298156101Y-106989583D01*
X298203720Y-106894345D01*
X298013244Y-107846726D02*
X297965625Y-107894345D01*
X297918006Y-107989583D01*
X297918006Y-108227679D01*
X297965625Y-108322917D01*
X298013244Y-108370536D01*
X298108482Y-108418155D01*
X298203720Y-108418155D01*
X298346577Y-108370536D01*
X298918006Y-107799107D01*
X298918006Y-108418155D01*
X317968006Y-105941964D02*
X316968006Y-105941964D01*
X316968006Y-106180059D01*
X317015625Y-106322917D01*
X317110863Y-106418155D01*
X317206101Y-106465774D01*
X317396577Y-106513393D01*
X317539435Y-106513393D01*
X317729911Y-106465774D01*
X317825149Y-106418155D01*
X317920387Y-106322917D01*
X317968006Y-106180059D01*
X317968006Y-105941964D01*
X317968006Y-107465774D02*
X317968006Y-106894345D01*
X317968006Y-107180059D02*
X316968006Y-107180059D01*
X317110863Y-107084821D01*
X317206101Y-106989583D01*
X317253720Y-106894345D01*
X316968006Y-107799107D02*
X316968006Y-108418155D01*
X317348958Y-108084821D01*
X317348958Y-108227679D01*
X317396577Y-108322917D01*
X317444196Y-108370536D01*
X317539435Y-108418155D01*
X317777530Y-108418155D01*
X317872768Y-108370536D01*
X317920387Y-108322917D01*
X317968006Y-108227679D01*
X317968006Y-107941964D01*
X317920387Y-107846726D01*
X317872768Y-107799107D01*
X337018006Y-105941964D02*
X336018006Y-105941964D01*
X336018006Y-106180059D01*
X336065625Y-106322917D01*
X336160863Y-106418155D01*
X336256101Y-106465774D01*
X336446577Y-106513393D01*
X336589435Y-106513393D01*
X336779911Y-106465774D01*
X336875149Y-106418155D01*
X336970387Y-106322917D01*
X337018006Y-106180059D01*
X337018006Y-105941964D01*
X337018006Y-107465774D02*
X337018006Y-106894345D01*
X337018006Y-107180059D02*
X336018006Y-107180059D01*
X336160863Y-107084821D01*
X336256101Y-106989583D01*
X336303720Y-106894345D01*
X336351339Y-108322917D02*
X337018006Y-108322917D01*
X335970387Y-108084821D02*
X336684673Y-107846726D01*
X336684673Y-108465774D01*
X356068006Y-105941964D02*
X355068006Y-105941964D01*
X355068006Y-106180059D01*
X355115625Y-106322917D01*
X355210863Y-106418155D01*
X355306101Y-106465774D01*
X355496577Y-106513393D01*
X355639435Y-106513393D01*
X355829911Y-106465774D01*
X355925149Y-106418155D01*
X356020387Y-106322917D01*
X356068006Y-106180059D01*
X356068006Y-105941964D01*
X356068006Y-107465774D02*
X356068006Y-106894345D01*
X356068006Y-107180059D02*
X355068006Y-107180059D01*
X355210863Y-107084821D01*
X355306101Y-106989583D01*
X355353720Y-106894345D01*
X355068006Y-108370536D02*
X355068006Y-107894345D01*
X355544196Y-107846726D01*
X355496577Y-107894345D01*
X355448958Y-107989583D01*
X355448958Y-108227679D01*
X355496577Y-108322917D01*
X355544196Y-108370536D01*
X355639435Y-108418155D01*
X355877530Y-108418155D01*
X355972768Y-108370536D01*
X356020387Y-108322917D01*
X356068006Y-108227679D01*
X356068006Y-107989583D01*
X356020387Y-107894345D01*
X355972768Y-107846726D01*
X94130506Y-124991964D02*
X93130506Y-124991964D01*
X93130506Y-125230059D01*
X93178125Y-125372917D01*
X93273363Y-125468155D01*
X93368601Y-125515774D01*
X93559077Y-125563393D01*
X93701935Y-125563393D01*
X93892411Y-125515774D01*
X93987649Y-125468155D01*
X94082887Y-125372917D01*
X94130506Y-125230059D01*
X94130506Y-124991964D01*
X94130506Y-126515774D02*
X94130506Y-125944345D01*
X94130506Y-126230059D02*
X93130506Y-126230059D01*
X93273363Y-126134821D01*
X93368601Y-126039583D01*
X93416220Y-125944345D01*
X93130506Y-127372917D02*
X93130506Y-127182440D01*
X93178125Y-127087202D01*
X93225744Y-127039583D01*
X93368601Y-126944345D01*
X93559077Y-126896726D01*
X93940030Y-126896726D01*
X94035268Y-126944345D01*
X94082887Y-126991964D01*
X94130506Y-127087202D01*
X94130506Y-127277679D01*
X94082887Y-127372917D01*
X94035268Y-127420536D01*
X93940030Y-127468155D01*
X93701935Y-127468155D01*
X93606696Y-127420536D01*
X93559077Y-127372917D01*
X93511458Y-127277679D01*
X93511458Y-127087202D01*
X93559077Y-126991964D01*
X93606696Y-126944345D01*
X93701935Y-126896726D01*
X117943006Y-124991964D02*
X116943006Y-124991964D01*
X116943006Y-125230059D01*
X116990625Y-125372917D01*
X117085863Y-125468155D01*
X117181101Y-125515774D01*
X117371577Y-125563393D01*
X117514435Y-125563393D01*
X117704911Y-125515774D01*
X117800149Y-125468155D01*
X117895387Y-125372917D01*
X117943006Y-125230059D01*
X117943006Y-124991964D01*
X117943006Y-126515774D02*
X117943006Y-125944345D01*
X117943006Y-126230059D02*
X116943006Y-126230059D01*
X117085863Y-126134821D01*
X117181101Y-126039583D01*
X117228720Y-125944345D01*
X116943006Y-126849107D02*
X116943006Y-127515774D01*
X117943006Y-127087202D01*
X136993006Y-124991964D02*
X135993006Y-124991964D01*
X135993006Y-125230059D01*
X136040625Y-125372917D01*
X136135863Y-125468155D01*
X136231101Y-125515774D01*
X136421577Y-125563393D01*
X136564435Y-125563393D01*
X136754911Y-125515774D01*
X136850149Y-125468155D01*
X136945387Y-125372917D01*
X136993006Y-125230059D01*
X136993006Y-124991964D01*
X136993006Y-126515774D02*
X136993006Y-125944345D01*
X136993006Y-126230059D02*
X135993006Y-126230059D01*
X136135863Y-126134821D01*
X136231101Y-126039583D01*
X136278720Y-125944345D01*
X136421577Y-127087202D02*
X136373958Y-126991964D01*
X136326339Y-126944345D01*
X136231101Y-126896726D01*
X136183482Y-126896726D01*
X136088244Y-126944345D01*
X136040625Y-126991964D01*
X135993006Y-127087202D01*
X135993006Y-127277679D01*
X136040625Y-127372917D01*
X136088244Y-127420536D01*
X136183482Y-127468155D01*
X136231101Y-127468155D01*
X136326339Y-127420536D01*
X136373958Y-127372917D01*
X136421577Y-127277679D01*
X136421577Y-127087202D01*
X136469196Y-126991964D01*
X136516815Y-126944345D01*
X136612054Y-126896726D01*
X136802530Y-126896726D01*
X136897768Y-126944345D01*
X136945387Y-126991964D01*
X136993006Y-127087202D01*
X136993006Y-127277679D01*
X136945387Y-127372917D01*
X136897768Y-127420536D01*
X136802530Y-127468155D01*
X136612054Y-127468155D01*
X136516815Y-127420536D01*
X136469196Y-127372917D01*
X136421577Y-127277679D01*
X156043006Y-124991964D02*
X155043006Y-124991964D01*
X155043006Y-125230059D01*
X155090625Y-125372917D01*
X155185863Y-125468155D01*
X155281101Y-125515774D01*
X155471577Y-125563393D01*
X155614435Y-125563393D01*
X155804911Y-125515774D01*
X155900149Y-125468155D01*
X155995387Y-125372917D01*
X156043006Y-125230059D01*
X156043006Y-124991964D01*
X156043006Y-126515774D02*
X156043006Y-125944345D01*
X156043006Y-126230059D02*
X155043006Y-126230059D01*
X155185863Y-126134821D01*
X155281101Y-126039583D01*
X155328720Y-125944345D01*
X156043006Y-126991964D02*
X156043006Y-127182440D01*
X155995387Y-127277679D01*
X155947768Y-127325298D01*
X155804911Y-127420536D01*
X155614435Y-127468155D01*
X155233482Y-127468155D01*
X155138244Y-127420536D01*
X155090625Y-127372917D01*
X155043006Y-127277679D01*
X155043006Y-127087202D01*
X155090625Y-126991964D01*
X155138244Y-126944345D01*
X155233482Y-126896726D01*
X155471577Y-126896726D01*
X155566815Y-126944345D01*
X155614435Y-126991964D01*
X155662054Y-127087202D01*
X155662054Y-127277679D01*
X155614435Y-127372917D01*
X155566815Y-127420536D01*
X155471577Y-127468155D01*
X175093006Y-124991964D02*
X174093006Y-124991964D01*
X174093006Y-125230059D01*
X174140625Y-125372917D01*
X174235863Y-125468155D01*
X174331101Y-125515774D01*
X174521577Y-125563393D01*
X174664435Y-125563393D01*
X174854911Y-125515774D01*
X174950149Y-125468155D01*
X175045387Y-125372917D01*
X175093006Y-125230059D01*
X175093006Y-124991964D01*
X174188244Y-125944345D02*
X174140625Y-125991964D01*
X174093006Y-126087202D01*
X174093006Y-126325298D01*
X174140625Y-126420536D01*
X174188244Y-126468155D01*
X174283482Y-126515774D01*
X174378720Y-126515774D01*
X174521577Y-126468155D01*
X175093006Y-125896726D01*
X175093006Y-126515774D01*
X174093006Y-127134821D02*
X174093006Y-127230060D01*
X174140625Y-127325298D01*
X174188244Y-127372917D01*
X174283482Y-127420536D01*
X174473958Y-127468155D01*
X174712054Y-127468155D01*
X174902530Y-127420536D01*
X174997768Y-127372917D01*
X175045387Y-127325298D01*
X175093006Y-127230060D01*
X175093006Y-127134821D01*
X175045387Y-127039583D01*
X174997768Y-126991964D01*
X174902530Y-126944345D01*
X174712054Y-126896726D01*
X174473958Y-126896726D01*
X174283482Y-126944345D01*
X174188244Y-126991964D01*
X174140625Y-127039583D01*
X174093006Y-127134821D01*
X194143006Y-124991964D02*
X193143006Y-124991964D01*
X193143006Y-125230059D01*
X193190625Y-125372917D01*
X193285863Y-125468155D01*
X193381101Y-125515774D01*
X193571577Y-125563393D01*
X193714435Y-125563393D01*
X193904911Y-125515774D01*
X194000149Y-125468155D01*
X194095387Y-125372917D01*
X194143006Y-125230059D01*
X194143006Y-124991964D01*
X193238244Y-125944345D02*
X193190625Y-125991964D01*
X193143006Y-126087202D01*
X193143006Y-126325298D01*
X193190625Y-126420536D01*
X193238244Y-126468155D01*
X193333482Y-126515774D01*
X193428720Y-126515774D01*
X193571577Y-126468155D01*
X194143006Y-125896726D01*
X194143006Y-126515774D01*
X194143006Y-127468155D02*
X194143006Y-126896726D01*
X194143006Y-127182440D02*
X193143006Y-127182440D01*
X193285863Y-127087202D01*
X193381101Y-126991964D01*
X193428720Y-126896726D01*
X213193006Y-124991964D02*
X212193006Y-124991964D01*
X212193006Y-125230059D01*
X212240625Y-125372917D01*
X212335863Y-125468155D01*
X212431101Y-125515774D01*
X212621577Y-125563393D01*
X212764435Y-125563393D01*
X212954911Y-125515774D01*
X213050149Y-125468155D01*
X213145387Y-125372917D01*
X213193006Y-125230059D01*
X213193006Y-124991964D01*
X212288244Y-125944345D02*
X212240625Y-125991964D01*
X212193006Y-126087202D01*
X212193006Y-126325298D01*
X212240625Y-126420536D01*
X212288244Y-126468155D01*
X212383482Y-126515774D01*
X212478720Y-126515774D01*
X212621577Y-126468155D01*
X213193006Y-125896726D01*
X213193006Y-126515774D01*
X212288244Y-126896726D02*
X212240625Y-126944345D01*
X212193006Y-127039583D01*
X212193006Y-127277679D01*
X212240625Y-127372917D01*
X212288244Y-127420536D01*
X212383482Y-127468155D01*
X212478720Y-127468155D01*
X212621577Y-127420536D01*
X213193006Y-126849107D01*
X213193006Y-127468155D01*
X232243006Y-124991964D02*
X231243006Y-124991964D01*
X231243006Y-125230059D01*
X231290625Y-125372917D01*
X231385863Y-125468155D01*
X231481101Y-125515774D01*
X231671577Y-125563393D01*
X231814435Y-125563393D01*
X232004911Y-125515774D01*
X232100149Y-125468155D01*
X232195387Y-125372917D01*
X232243006Y-125230059D01*
X232243006Y-124991964D01*
X231338244Y-125944345D02*
X231290625Y-125991964D01*
X231243006Y-126087202D01*
X231243006Y-126325298D01*
X231290625Y-126420536D01*
X231338244Y-126468155D01*
X231433482Y-126515774D01*
X231528720Y-126515774D01*
X231671577Y-126468155D01*
X232243006Y-125896726D01*
X232243006Y-126515774D01*
X231243006Y-126849107D02*
X231243006Y-127468155D01*
X231623958Y-127134821D01*
X231623958Y-127277679D01*
X231671577Y-127372917D01*
X231719196Y-127420536D01*
X231814435Y-127468155D01*
X232052530Y-127468155D01*
X232147768Y-127420536D01*
X232195387Y-127372917D01*
X232243006Y-127277679D01*
X232243006Y-126991964D01*
X232195387Y-126896726D01*
X232147768Y-126849107D01*
X251293006Y-124991964D02*
X250293006Y-124991964D01*
X250293006Y-125230059D01*
X250340625Y-125372917D01*
X250435863Y-125468155D01*
X250531101Y-125515774D01*
X250721577Y-125563393D01*
X250864435Y-125563393D01*
X251054911Y-125515774D01*
X251150149Y-125468155D01*
X251245387Y-125372917D01*
X251293006Y-125230059D01*
X251293006Y-124991964D01*
X250388244Y-125944345D02*
X250340625Y-125991964D01*
X250293006Y-126087202D01*
X250293006Y-126325298D01*
X250340625Y-126420536D01*
X250388244Y-126468155D01*
X250483482Y-126515774D01*
X250578720Y-126515774D01*
X250721577Y-126468155D01*
X251293006Y-125896726D01*
X251293006Y-126515774D01*
X250626339Y-127372917D02*
X251293006Y-127372917D01*
X250245387Y-127134821D02*
X250959673Y-126896726D01*
X250959673Y-127515774D01*
X270343006Y-124991964D02*
X269343006Y-124991964D01*
X269343006Y-125230059D01*
X269390625Y-125372917D01*
X269485863Y-125468155D01*
X269581101Y-125515774D01*
X269771577Y-125563393D01*
X269914435Y-125563393D01*
X270104911Y-125515774D01*
X270200149Y-125468155D01*
X270295387Y-125372917D01*
X270343006Y-125230059D01*
X270343006Y-124991964D01*
X269438244Y-125944345D02*
X269390625Y-125991964D01*
X269343006Y-126087202D01*
X269343006Y-126325298D01*
X269390625Y-126420536D01*
X269438244Y-126468155D01*
X269533482Y-126515774D01*
X269628720Y-126515774D01*
X269771577Y-126468155D01*
X270343006Y-125896726D01*
X270343006Y-126515774D01*
X269343006Y-127420536D02*
X269343006Y-126944345D01*
X269819196Y-126896726D01*
X269771577Y-126944345D01*
X269723958Y-127039583D01*
X269723958Y-127277679D01*
X269771577Y-127372917D01*
X269819196Y-127420536D01*
X269914435Y-127468155D01*
X270152530Y-127468155D01*
X270247768Y-127420536D01*
X270295387Y-127372917D01*
X270343006Y-127277679D01*
X270343006Y-127039583D01*
X270295387Y-126944345D01*
X270247768Y-126896726D01*
X289393006Y-124991964D02*
X288393006Y-124991964D01*
X288393006Y-125230059D01*
X288440625Y-125372917D01*
X288535863Y-125468155D01*
X288631101Y-125515774D01*
X288821577Y-125563393D01*
X288964435Y-125563393D01*
X289154911Y-125515774D01*
X289250149Y-125468155D01*
X289345387Y-125372917D01*
X289393006Y-125230059D01*
X289393006Y-124991964D01*
X288488244Y-125944345D02*
X288440625Y-125991964D01*
X288393006Y-126087202D01*
X288393006Y-126325298D01*
X288440625Y-126420536D01*
X288488244Y-126468155D01*
X288583482Y-126515774D01*
X288678720Y-126515774D01*
X288821577Y-126468155D01*
X289393006Y-125896726D01*
X289393006Y-126515774D01*
X288393006Y-127372917D02*
X288393006Y-127182440D01*
X288440625Y-127087202D01*
X288488244Y-127039583D01*
X288631101Y-126944345D01*
X288821577Y-126896726D01*
X289202530Y-126896726D01*
X289297768Y-126944345D01*
X289345387Y-126991964D01*
X289393006Y-127087202D01*
X289393006Y-127277679D01*
X289345387Y-127372917D01*
X289297768Y-127420536D01*
X289202530Y-127468155D01*
X288964435Y-127468155D01*
X288869196Y-127420536D01*
X288821577Y-127372917D01*
X288773958Y-127277679D01*
X288773958Y-127087202D01*
X288821577Y-126991964D01*
X288869196Y-126944345D01*
X288964435Y-126896726D01*
X308443006Y-124991964D02*
X307443006Y-124991964D01*
X307443006Y-125230059D01*
X307490625Y-125372917D01*
X307585863Y-125468155D01*
X307681101Y-125515774D01*
X307871577Y-125563393D01*
X308014435Y-125563393D01*
X308204911Y-125515774D01*
X308300149Y-125468155D01*
X308395387Y-125372917D01*
X308443006Y-125230059D01*
X308443006Y-124991964D01*
X307538244Y-125944345D02*
X307490625Y-125991964D01*
X307443006Y-126087202D01*
X307443006Y-126325298D01*
X307490625Y-126420536D01*
X307538244Y-126468155D01*
X307633482Y-126515774D01*
X307728720Y-126515774D01*
X307871577Y-126468155D01*
X308443006Y-125896726D01*
X308443006Y-126515774D01*
X307443006Y-126849107D02*
X307443006Y-127515774D01*
X308443006Y-127087202D01*
X327493006Y-124991964D02*
X326493006Y-124991964D01*
X326493006Y-125230059D01*
X326540625Y-125372917D01*
X326635863Y-125468155D01*
X326731101Y-125515774D01*
X326921577Y-125563393D01*
X327064435Y-125563393D01*
X327254911Y-125515774D01*
X327350149Y-125468155D01*
X327445387Y-125372917D01*
X327493006Y-125230059D01*
X327493006Y-124991964D01*
X326588244Y-125944345D02*
X326540625Y-125991964D01*
X326493006Y-126087202D01*
X326493006Y-126325298D01*
X326540625Y-126420536D01*
X326588244Y-126468155D01*
X326683482Y-126515774D01*
X326778720Y-126515774D01*
X326921577Y-126468155D01*
X327493006Y-125896726D01*
X327493006Y-126515774D01*
X326921577Y-127087202D02*
X326873958Y-126991964D01*
X326826339Y-126944345D01*
X326731101Y-126896726D01*
X326683482Y-126896726D01*
X326588244Y-126944345D01*
X326540625Y-126991964D01*
X326493006Y-127087202D01*
X326493006Y-127277679D01*
X326540625Y-127372917D01*
X326588244Y-127420536D01*
X326683482Y-127468155D01*
X326731101Y-127468155D01*
X326826339Y-127420536D01*
X326873958Y-127372917D01*
X326921577Y-127277679D01*
X326921577Y-127087202D01*
X326969196Y-126991964D01*
X327016815Y-126944345D01*
X327112054Y-126896726D01*
X327302530Y-126896726D01*
X327397768Y-126944345D01*
X327445387Y-126991964D01*
X327493006Y-127087202D01*
X327493006Y-127277679D01*
X327445387Y-127372917D01*
X327397768Y-127420536D01*
X327302530Y-127468155D01*
X327112054Y-127468155D01*
X327016815Y-127420536D01*
X326969196Y-127372917D01*
X326921577Y-127277679D01*
X351305506Y-124991964D02*
X350305506Y-124991964D01*
X350305506Y-125230059D01*
X350353125Y-125372917D01*
X350448363Y-125468155D01*
X350543601Y-125515774D01*
X350734077Y-125563393D01*
X350876935Y-125563393D01*
X351067411Y-125515774D01*
X351162649Y-125468155D01*
X351257887Y-125372917D01*
X351305506Y-125230059D01*
X351305506Y-124991964D01*
X350400744Y-125944345D02*
X350353125Y-125991964D01*
X350305506Y-126087202D01*
X350305506Y-126325298D01*
X350353125Y-126420536D01*
X350400744Y-126468155D01*
X350495982Y-126515774D01*
X350591220Y-126515774D01*
X350734077Y-126468155D01*
X351305506Y-125896726D01*
X351305506Y-126515774D01*
X351305506Y-126991964D02*
X351305506Y-127182440D01*
X351257887Y-127277679D01*
X351210268Y-127325298D01*
X351067411Y-127420536D01*
X350876935Y-127468155D01*
X350495982Y-127468155D01*
X350400744Y-127420536D01*
X350353125Y-127372917D01*
X350305506Y-127277679D01*
X350305506Y-127087202D01*
X350353125Y-126991964D01*
X350400744Y-126944345D01*
X350495982Y-126896726D01*
X350734077Y-126896726D01*
X350829315Y-126944345D01*
X350876935Y-126991964D01*
X350924554Y-127087202D01*
X350924554Y-127277679D01*
X350876935Y-127372917D01*
X350829315Y-127420536D01*
X350734077Y-127468155D01*
X375118006Y-124991964D02*
X374118006Y-124991964D01*
X374118006Y-125230059D01*
X374165625Y-125372917D01*
X374260863Y-125468155D01*
X374356101Y-125515774D01*
X374546577Y-125563393D01*
X374689435Y-125563393D01*
X374879911Y-125515774D01*
X374975149Y-125468155D01*
X375070387Y-125372917D01*
X375118006Y-125230059D01*
X375118006Y-124991964D01*
X374118006Y-125896726D02*
X374118006Y-126515774D01*
X374498958Y-126182440D01*
X374498958Y-126325298D01*
X374546577Y-126420536D01*
X374594196Y-126468155D01*
X374689435Y-126515774D01*
X374927530Y-126515774D01*
X375022768Y-126468155D01*
X375070387Y-126420536D01*
X375118006Y-126325298D01*
X375118006Y-126039583D01*
X375070387Y-125944345D01*
X375022768Y-125896726D01*
X374118006Y-127134821D02*
X374118006Y-127230060D01*
X374165625Y-127325298D01*
X374213244Y-127372917D01*
X374308482Y-127420536D01*
X374498958Y-127468155D01*
X374737054Y-127468155D01*
X374927530Y-127420536D01*
X375022768Y-127372917D01*
X375070387Y-127325298D01*
X375118006Y-127230060D01*
X375118006Y-127134821D01*
X375070387Y-127039583D01*
X375022768Y-126991964D01*
X374927530Y-126944345D01*
X374737054Y-126896726D01*
X374498958Y-126896726D01*
X374308482Y-126944345D01*
X374213244Y-126991964D01*
X374165625Y-127039583D01*
X374118006Y-127134821D01*
X91749256Y-144041964D02*
X90749256Y-144041964D01*
X90749256Y-144280059D01*
X90796875Y-144422917D01*
X90892113Y-144518155D01*
X90987351Y-144565774D01*
X91177827Y-144613393D01*
X91320685Y-144613393D01*
X91511161Y-144565774D01*
X91606399Y-144518155D01*
X91701637Y-144422917D01*
X91749256Y-144280059D01*
X91749256Y-144041964D01*
X90749256Y-144946726D02*
X90749256Y-145565774D01*
X91130208Y-145232440D01*
X91130208Y-145375298D01*
X91177827Y-145470536D01*
X91225446Y-145518155D01*
X91320685Y-145565774D01*
X91558780Y-145565774D01*
X91654018Y-145518155D01*
X91701637Y-145470536D01*
X91749256Y-145375298D01*
X91749256Y-145089583D01*
X91701637Y-144994345D01*
X91654018Y-144946726D01*
X91749256Y-146518155D02*
X91749256Y-145946726D01*
X91749256Y-146232440D02*
X90749256Y-146232440D01*
X90892113Y-146137202D01*
X90987351Y-146041964D01*
X91034970Y-145946726D01*
X122705506Y-144041964D02*
X121705506Y-144041964D01*
X121705506Y-144280059D01*
X121753125Y-144422917D01*
X121848363Y-144518155D01*
X121943601Y-144565774D01*
X122134077Y-144613393D01*
X122276935Y-144613393D01*
X122467411Y-144565774D01*
X122562649Y-144518155D01*
X122657887Y-144422917D01*
X122705506Y-144280059D01*
X122705506Y-144041964D01*
X121705506Y-144946726D02*
X121705506Y-145565774D01*
X122086458Y-145232440D01*
X122086458Y-145375298D01*
X122134077Y-145470536D01*
X122181696Y-145518155D01*
X122276935Y-145565774D01*
X122515030Y-145565774D01*
X122610268Y-145518155D01*
X122657887Y-145470536D01*
X122705506Y-145375298D01*
X122705506Y-145089583D01*
X122657887Y-144994345D01*
X122610268Y-144946726D01*
X121800744Y-145946726D02*
X121753125Y-145994345D01*
X121705506Y-146089583D01*
X121705506Y-146327679D01*
X121753125Y-146422917D01*
X121800744Y-146470536D01*
X121895982Y-146518155D01*
X121991220Y-146518155D01*
X122134077Y-146470536D01*
X122705506Y-145899107D01*
X122705506Y-146518155D01*
X141755506Y-144041964D02*
X140755506Y-144041964D01*
X140755506Y-144280059D01*
X140803125Y-144422917D01*
X140898363Y-144518155D01*
X140993601Y-144565774D01*
X141184077Y-144613393D01*
X141326935Y-144613393D01*
X141517411Y-144565774D01*
X141612649Y-144518155D01*
X141707887Y-144422917D01*
X141755506Y-144280059D01*
X141755506Y-144041964D01*
X140755506Y-144946726D02*
X140755506Y-145565774D01*
X141136458Y-145232440D01*
X141136458Y-145375298D01*
X141184077Y-145470536D01*
X141231696Y-145518155D01*
X141326935Y-145565774D01*
X141565030Y-145565774D01*
X141660268Y-145518155D01*
X141707887Y-145470536D01*
X141755506Y-145375298D01*
X141755506Y-145089583D01*
X141707887Y-144994345D01*
X141660268Y-144946726D01*
X140755506Y-145899107D02*
X140755506Y-146518155D01*
X141136458Y-146184821D01*
X141136458Y-146327679D01*
X141184077Y-146422917D01*
X141231696Y-146470536D01*
X141326935Y-146518155D01*
X141565030Y-146518155D01*
X141660268Y-146470536D01*
X141707887Y-146422917D01*
X141755506Y-146327679D01*
X141755506Y-146041964D01*
X141707887Y-145946726D01*
X141660268Y-145899107D01*
X160805506Y-144041964D02*
X159805506Y-144041964D01*
X159805506Y-144280059D01*
X159853125Y-144422917D01*
X159948363Y-144518155D01*
X160043601Y-144565774D01*
X160234077Y-144613393D01*
X160376935Y-144613393D01*
X160567411Y-144565774D01*
X160662649Y-144518155D01*
X160757887Y-144422917D01*
X160805506Y-144280059D01*
X160805506Y-144041964D01*
X159805506Y-144946726D02*
X159805506Y-145565774D01*
X160186458Y-145232440D01*
X160186458Y-145375298D01*
X160234077Y-145470536D01*
X160281696Y-145518155D01*
X160376935Y-145565774D01*
X160615030Y-145565774D01*
X160710268Y-145518155D01*
X160757887Y-145470536D01*
X160805506Y-145375298D01*
X160805506Y-145089583D01*
X160757887Y-144994345D01*
X160710268Y-144946726D01*
X160138839Y-146422917D02*
X160805506Y-146422917D01*
X159757887Y-146184821D02*
X160472173Y-145946726D01*
X160472173Y-146565774D01*
X179855506Y-144041964D02*
X178855506Y-144041964D01*
X178855506Y-144280059D01*
X178903125Y-144422917D01*
X178998363Y-144518155D01*
X179093601Y-144565774D01*
X179284077Y-144613393D01*
X179426935Y-144613393D01*
X179617411Y-144565774D01*
X179712649Y-144518155D01*
X179807887Y-144422917D01*
X179855506Y-144280059D01*
X179855506Y-144041964D01*
X178855506Y-144946726D02*
X178855506Y-145565774D01*
X179236458Y-145232440D01*
X179236458Y-145375298D01*
X179284077Y-145470536D01*
X179331696Y-145518155D01*
X179426935Y-145565774D01*
X179665030Y-145565774D01*
X179760268Y-145518155D01*
X179807887Y-145470536D01*
X179855506Y-145375298D01*
X179855506Y-145089583D01*
X179807887Y-144994345D01*
X179760268Y-144946726D01*
X178855506Y-146470536D02*
X178855506Y-145994345D01*
X179331696Y-145946726D01*
X179284077Y-145994345D01*
X179236458Y-146089583D01*
X179236458Y-146327679D01*
X179284077Y-146422917D01*
X179331696Y-146470536D01*
X179426935Y-146518155D01*
X179665030Y-146518155D01*
X179760268Y-146470536D01*
X179807887Y-146422917D01*
X179855506Y-146327679D01*
X179855506Y-146089583D01*
X179807887Y-145994345D01*
X179760268Y-145946726D01*
X198905506Y-144041964D02*
X197905506Y-144041964D01*
X197905506Y-144280059D01*
X197953125Y-144422917D01*
X198048363Y-144518155D01*
X198143601Y-144565774D01*
X198334077Y-144613393D01*
X198476935Y-144613393D01*
X198667411Y-144565774D01*
X198762649Y-144518155D01*
X198857887Y-144422917D01*
X198905506Y-144280059D01*
X198905506Y-144041964D01*
X197905506Y-144946726D02*
X197905506Y-145565774D01*
X198286458Y-145232440D01*
X198286458Y-145375298D01*
X198334077Y-145470536D01*
X198381696Y-145518155D01*
X198476935Y-145565774D01*
X198715030Y-145565774D01*
X198810268Y-145518155D01*
X198857887Y-145470536D01*
X198905506Y-145375298D01*
X198905506Y-145089583D01*
X198857887Y-144994345D01*
X198810268Y-144946726D01*
X197905506Y-146422917D02*
X197905506Y-146232440D01*
X197953125Y-146137202D01*
X198000744Y-146089583D01*
X198143601Y-145994345D01*
X198334077Y-145946726D01*
X198715030Y-145946726D01*
X198810268Y-145994345D01*
X198857887Y-146041964D01*
X198905506Y-146137202D01*
X198905506Y-146327679D01*
X198857887Y-146422917D01*
X198810268Y-146470536D01*
X198715030Y-146518155D01*
X198476935Y-146518155D01*
X198381696Y-146470536D01*
X198334077Y-146422917D01*
X198286458Y-146327679D01*
X198286458Y-146137202D01*
X198334077Y-146041964D01*
X198381696Y-145994345D01*
X198476935Y-145946726D01*
X217955506Y-144041964D02*
X216955506Y-144041964D01*
X216955506Y-144280059D01*
X217003125Y-144422917D01*
X217098363Y-144518155D01*
X217193601Y-144565774D01*
X217384077Y-144613393D01*
X217526935Y-144613393D01*
X217717411Y-144565774D01*
X217812649Y-144518155D01*
X217907887Y-144422917D01*
X217955506Y-144280059D01*
X217955506Y-144041964D01*
X216955506Y-144946726D02*
X216955506Y-145565774D01*
X217336458Y-145232440D01*
X217336458Y-145375298D01*
X217384077Y-145470536D01*
X217431696Y-145518155D01*
X217526935Y-145565774D01*
X217765030Y-145565774D01*
X217860268Y-145518155D01*
X217907887Y-145470536D01*
X217955506Y-145375298D01*
X217955506Y-145089583D01*
X217907887Y-144994345D01*
X217860268Y-144946726D01*
X216955506Y-145899107D02*
X216955506Y-146565774D01*
X217955506Y-146137202D01*
X237005506Y-144041964D02*
X236005506Y-144041964D01*
X236005506Y-144280059D01*
X236053125Y-144422917D01*
X236148363Y-144518155D01*
X236243601Y-144565774D01*
X236434077Y-144613393D01*
X236576935Y-144613393D01*
X236767411Y-144565774D01*
X236862649Y-144518155D01*
X236957887Y-144422917D01*
X237005506Y-144280059D01*
X237005506Y-144041964D01*
X236005506Y-144946726D02*
X236005506Y-145565774D01*
X236386458Y-145232440D01*
X236386458Y-145375298D01*
X236434077Y-145470536D01*
X236481696Y-145518155D01*
X236576935Y-145565774D01*
X236815030Y-145565774D01*
X236910268Y-145518155D01*
X236957887Y-145470536D01*
X237005506Y-145375298D01*
X237005506Y-145089583D01*
X236957887Y-144994345D01*
X236910268Y-144946726D01*
X236434077Y-146137202D02*
X236386458Y-146041964D01*
X236338839Y-145994345D01*
X236243601Y-145946726D01*
X236195982Y-145946726D01*
X236100744Y-145994345D01*
X236053125Y-146041964D01*
X236005506Y-146137202D01*
X236005506Y-146327679D01*
X236053125Y-146422917D01*
X236100744Y-146470536D01*
X236195982Y-146518155D01*
X236243601Y-146518155D01*
X236338839Y-146470536D01*
X236386458Y-146422917D01*
X236434077Y-146327679D01*
X236434077Y-146137202D01*
X236481696Y-146041964D01*
X236529315Y-145994345D01*
X236624554Y-145946726D01*
X236815030Y-145946726D01*
X236910268Y-145994345D01*
X236957887Y-146041964D01*
X237005506Y-146137202D01*
X237005506Y-146327679D01*
X236957887Y-146422917D01*
X236910268Y-146470536D01*
X236815030Y-146518155D01*
X236624554Y-146518155D01*
X236529315Y-146470536D01*
X236481696Y-146422917D01*
X236434077Y-146327679D01*
X256055506Y-144041964D02*
X255055506Y-144041964D01*
X255055506Y-144280059D01*
X255103125Y-144422917D01*
X255198363Y-144518155D01*
X255293601Y-144565774D01*
X255484077Y-144613393D01*
X255626935Y-144613393D01*
X255817411Y-144565774D01*
X255912649Y-144518155D01*
X256007887Y-144422917D01*
X256055506Y-144280059D01*
X256055506Y-144041964D01*
X255055506Y-144946726D02*
X255055506Y-145565774D01*
X255436458Y-145232440D01*
X255436458Y-145375298D01*
X255484077Y-145470536D01*
X255531696Y-145518155D01*
X255626935Y-145565774D01*
X255865030Y-145565774D01*
X255960268Y-145518155D01*
X256007887Y-145470536D01*
X256055506Y-145375298D01*
X256055506Y-145089583D01*
X256007887Y-144994345D01*
X255960268Y-144946726D01*
X256055506Y-146041964D02*
X256055506Y-146232440D01*
X256007887Y-146327679D01*
X255960268Y-146375298D01*
X255817411Y-146470536D01*
X255626935Y-146518155D01*
X255245982Y-146518155D01*
X255150744Y-146470536D01*
X255103125Y-146422917D01*
X255055506Y-146327679D01*
X255055506Y-146137202D01*
X255103125Y-146041964D01*
X255150744Y-145994345D01*
X255245982Y-145946726D01*
X255484077Y-145946726D01*
X255579315Y-145994345D01*
X255626935Y-146041964D01*
X255674554Y-146137202D01*
X255674554Y-146327679D01*
X255626935Y-146422917D01*
X255579315Y-146470536D01*
X255484077Y-146518155D01*
X275105506Y-144041964D02*
X274105506Y-144041964D01*
X274105506Y-144280059D01*
X274153125Y-144422917D01*
X274248363Y-144518155D01*
X274343601Y-144565774D01*
X274534077Y-144613393D01*
X274676935Y-144613393D01*
X274867411Y-144565774D01*
X274962649Y-144518155D01*
X275057887Y-144422917D01*
X275105506Y-144280059D01*
X275105506Y-144041964D01*
X274438839Y-145470536D02*
X275105506Y-145470536D01*
X274057887Y-145232440D02*
X274772173Y-144994345D01*
X274772173Y-145613393D01*
X274105506Y-146184821D02*
X274105506Y-146280060D01*
X274153125Y-146375298D01*
X274200744Y-146422917D01*
X274295982Y-146470536D01*
X274486458Y-146518155D01*
X274724554Y-146518155D01*
X274915030Y-146470536D01*
X275010268Y-146422917D01*
X275057887Y-146375298D01*
X275105506Y-146280060D01*
X275105506Y-146184821D01*
X275057887Y-146089583D01*
X275010268Y-146041964D01*
X274915030Y-145994345D01*
X274724554Y-145946726D01*
X274486458Y-145946726D01*
X274295982Y-145994345D01*
X274200744Y-146041964D01*
X274153125Y-146089583D01*
X274105506Y-146184821D01*
X294155506Y-144041964D02*
X293155506Y-144041964D01*
X293155506Y-144280059D01*
X293203125Y-144422917D01*
X293298363Y-144518155D01*
X293393601Y-144565774D01*
X293584077Y-144613393D01*
X293726935Y-144613393D01*
X293917411Y-144565774D01*
X294012649Y-144518155D01*
X294107887Y-144422917D01*
X294155506Y-144280059D01*
X294155506Y-144041964D01*
X293488839Y-145470536D02*
X294155506Y-145470536D01*
X293107887Y-145232440D02*
X293822173Y-144994345D01*
X293822173Y-145613393D01*
X294155506Y-146518155D02*
X294155506Y-145946726D01*
X294155506Y-146232440D02*
X293155506Y-146232440D01*
X293298363Y-146137202D01*
X293393601Y-146041964D01*
X293441220Y-145946726D01*
X313205506Y-144041964D02*
X312205506Y-144041964D01*
X312205506Y-144280059D01*
X312253125Y-144422917D01*
X312348363Y-144518155D01*
X312443601Y-144565774D01*
X312634077Y-144613393D01*
X312776935Y-144613393D01*
X312967411Y-144565774D01*
X313062649Y-144518155D01*
X313157887Y-144422917D01*
X313205506Y-144280059D01*
X313205506Y-144041964D01*
X312538839Y-145470536D02*
X313205506Y-145470536D01*
X312157887Y-145232440D02*
X312872173Y-144994345D01*
X312872173Y-145613393D01*
X312300744Y-145946726D02*
X312253125Y-145994345D01*
X312205506Y-146089583D01*
X312205506Y-146327679D01*
X312253125Y-146422917D01*
X312300744Y-146470536D01*
X312395982Y-146518155D01*
X312491220Y-146518155D01*
X312634077Y-146470536D01*
X313205506Y-145899107D01*
X313205506Y-146518155D01*
X344161756Y-144041964D02*
X343161756Y-144041964D01*
X343161756Y-144280059D01*
X343209375Y-144422917D01*
X343304613Y-144518155D01*
X343399851Y-144565774D01*
X343590327Y-144613393D01*
X343733185Y-144613393D01*
X343923661Y-144565774D01*
X344018899Y-144518155D01*
X344114137Y-144422917D01*
X344161756Y-144280059D01*
X344161756Y-144041964D01*
X343495089Y-145470536D02*
X344161756Y-145470536D01*
X343114137Y-145232440D02*
X343828423Y-144994345D01*
X343828423Y-145613393D01*
X343161756Y-145899107D02*
X343161756Y-146518155D01*
X343542708Y-146184821D01*
X343542708Y-146327679D01*
X343590327Y-146422917D01*
X343637946Y-146470536D01*
X343733185Y-146518155D01*
X343971280Y-146518155D01*
X344066518Y-146470536D01*
X344114137Y-146422917D01*
X344161756Y-146327679D01*
X344161756Y-146041964D01*
X344114137Y-145946726D01*
X344066518Y-145899107D01*
X375118006Y-144041964D02*
X374118006Y-144041964D01*
X374118006Y-144280059D01*
X374165625Y-144422917D01*
X374260863Y-144518155D01*
X374356101Y-144565774D01*
X374546577Y-144613393D01*
X374689435Y-144613393D01*
X374879911Y-144565774D01*
X374975149Y-144518155D01*
X375070387Y-144422917D01*
X375118006Y-144280059D01*
X375118006Y-144041964D01*
X374451339Y-145470536D02*
X375118006Y-145470536D01*
X374070387Y-145232440D02*
X374784673Y-144994345D01*
X374784673Y-145613393D01*
X374451339Y-146422917D02*
X375118006Y-146422917D01*
X374070387Y-146184821D02*
X374784673Y-145946726D01*
X374784673Y-146565774D01*
X101274256Y-163091964D02*
X100274256Y-163091964D01*
X100274256Y-163330059D01*
X100321875Y-163472917D01*
X100417113Y-163568155D01*
X100512351Y-163615774D01*
X100702827Y-163663393D01*
X100845685Y-163663393D01*
X101036161Y-163615774D01*
X101131399Y-163568155D01*
X101226637Y-163472917D01*
X101274256Y-163330059D01*
X101274256Y-163091964D01*
X100607589Y-164520536D02*
X101274256Y-164520536D01*
X100226637Y-164282440D02*
X100940923Y-164044345D01*
X100940923Y-164663393D01*
X100274256Y-165520536D02*
X100274256Y-165044345D01*
X100750446Y-164996726D01*
X100702827Y-165044345D01*
X100655208Y-165139583D01*
X100655208Y-165377679D01*
X100702827Y-165472917D01*
X100750446Y-165520536D01*
X100845685Y-165568155D01*
X101083780Y-165568155D01*
X101179018Y-165520536D01*
X101226637Y-165472917D01*
X101274256Y-165377679D01*
X101274256Y-165139583D01*
X101226637Y-165044345D01*
X101179018Y-164996726D01*
X132230506Y-163091964D02*
X131230506Y-163091964D01*
X131230506Y-163330059D01*
X131278125Y-163472917D01*
X131373363Y-163568155D01*
X131468601Y-163615774D01*
X131659077Y-163663393D01*
X131801935Y-163663393D01*
X131992411Y-163615774D01*
X132087649Y-163568155D01*
X132182887Y-163472917D01*
X132230506Y-163330059D01*
X132230506Y-163091964D01*
X131563839Y-164520536D02*
X132230506Y-164520536D01*
X131182887Y-164282440D02*
X131897173Y-164044345D01*
X131897173Y-164663393D01*
X131230506Y-165472917D02*
X131230506Y-165282440D01*
X131278125Y-165187202D01*
X131325744Y-165139583D01*
X131468601Y-165044345D01*
X131659077Y-164996726D01*
X132040030Y-164996726D01*
X132135268Y-165044345D01*
X132182887Y-165091964D01*
X132230506Y-165187202D01*
X132230506Y-165377679D01*
X132182887Y-165472917D01*
X132135268Y-165520536D01*
X132040030Y-165568155D01*
X131801935Y-165568155D01*
X131706696Y-165520536D01*
X131659077Y-165472917D01*
X131611458Y-165377679D01*
X131611458Y-165187202D01*
X131659077Y-165091964D01*
X131706696Y-165044345D01*
X131801935Y-164996726D01*
X151280506Y-163091964D02*
X150280506Y-163091964D01*
X150280506Y-163330059D01*
X150328125Y-163472917D01*
X150423363Y-163568155D01*
X150518601Y-163615774D01*
X150709077Y-163663393D01*
X150851935Y-163663393D01*
X151042411Y-163615774D01*
X151137649Y-163568155D01*
X151232887Y-163472917D01*
X151280506Y-163330059D01*
X151280506Y-163091964D01*
X150613839Y-164520536D02*
X151280506Y-164520536D01*
X150232887Y-164282440D02*
X150947173Y-164044345D01*
X150947173Y-164663393D01*
X150280506Y-164949107D02*
X150280506Y-165615774D01*
X151280506Y-165187202D01*
X170330506Y-163091964D02*
X169330506Y-163091964D01*
X169330506Y-163330059D01*
X169378125Y-163472917D01*
X169473363Y-163568155D01*
X169568601Y-163615774D01*
X169759077Y-163663393D01*
X169901935Y-163663393D01*
X170092411Y-163615774D01*
X170187649Y-163568155D01*
X170282887Y-163472917D01*
X170330506Y-163330059D01*
X170330506Y-163091964D01*
X169663839Y-164520536D02*
X170330506Y-164520536D01*
X169282887Y-164282440D02*
X169997173Y-164044345D01*
X169997173Y-164663393D01*
X169759077Y-165187202D02*
X169711458Y-165091964D01*
X169663839Y-165044345D01*
X169568601Y-164996726D01*
X169520982Y-164996726D01*
X169425744Y-165044345D01*
X169378125Y-165091964D01*
X169330506Y-165187202D01*
X169330506Y-165377679D01*
X169378125Y-165472917D01*
X169425744Y-165520536D01*
X169520982Y-165568155D01*
X169568601Y-165568155D01*
X169663839Y-165520536D01*
X169711458Y-165472917D01*
X169759077Y-165377679D01*
X169759077Y-165187202D01*
X169806696Y-165091964D01*
X169854315Y-165044345D01*
X169949554Y-164996726D01*
X170140030Y-164996726D01*
X170235268Y-165044345D01*
X170282887Y-165091964D01*
X170330506Y-165187202D01*
X170330506Y-165377679D01*
X170282887Y-165472917D01*
X170235268Y-165520536D01*
X170140030Y-165568155D01*
X169949554Y-165568155D01*
X169854315Y-165520536D01*
X169806696Y-165472917D01*
X169759077Y-165377679D01*
X189380506Y-163091964D02*
X188380506Y-163091964D01*
X188380506Y-163330059D01*
X188428125Y-163472917D01*
X188523363Y-163568155D01*
X188618601Y-163615774D01*
X188809077Y-163663393D01*
X188951935Y-163663393D01*
X189142411Y-163615774D01*
X189237649Y-163568155D01*
X189332887Y-163472917D01*
X189380506Y-163330059D01*
X189380506Y-163091964D01*
X188713839Y-164520536D02*
X189380506Y-164520536D01*
X188332887Y-164282440D02*
X189047173Y-164044345D01*
X189047173Y-164663393D01*
X189380506Y-165091964D02*
X189380506Y-165282440D01*
X189332887Y-165377679D01*
X189285268Y-165425298D01*
X189142411Y-165520536D01*
X188951935Y-165568155D01*
X188570982Y-165568155D01*
X188475744Y-165520536D01*
X188428125Y-165472917D01*
X188380506Y-165377679D01*
X188380506Y-165187202D01*
X188428125Y-165091964D01*
X188475744Y-165044345D01*
X188570982Y-164996726D01*
X188809077Y-164996726D01*
X188904315Y-165044345D01*
X188951935Y-165091964D01*
X188999554Y-165187202D01*
X188999554Y-165377679D01*
X188951935Y-165472917D01*
X188904315Y-165520536D01*
X188809077Y-165568155D01*
X208430506Y-163091964D02*
X207430506Y-163091964D01*
X207430506Y-163330059D01*
X207478125Y-163472917D01*
X207573363Y-163568155D01*
X207668601Y-163615774D01*
X207859077Y-163663393D01*
X208001935Y-163663393D01*
X208192411Y-163615774D01*
X208287649Y-163568155D01*
X208382887Y-163472917D01*
X208430506Y-163330059D01*
X208430506Y-163091964D01*
X207430506Y-164568155D02*
X207430506Y-164091964D01*
X207906696Y-164044345D01*
X207859077Y-164091964D01*
X207811458Y-164187202D01*
X207811458Y-164425298D01*
X207859077Y-164520536D01*
X207906696Y-164568155D01*
X208001935Y-164615774D01*
X208240030Y-164615774D01*
X208335268Y-164568155D01*
X208382887Y-164520536D01*
X208430506Y-164425298D01*
X208430506Y-164187202D01*
X208382887Y-164091964D01*
X208335268Y-164044345D01*
X207430506Y-165234821D02*
X207430506Y-165330060D01*
X207478125Y-165425298D01*
X207525744Y-165472917D01*
X207620982Y-165520536D01*
X207811458Y-165568155D01*
X208049554Y-165568155D01*
X208240030Y-165520536D01*
X208335268Y-165472917D01*
X208382887Y-165425298D01*
X208430506Y-165330060D01*
X208430506Y-165234821D01*
X208382887Y-165139583D01*
X208335268Y-165091964D01*
X208240030Y-165044345D01*
X208049554Y-164996726D01*
X207811458Y-164996726D01*
X207620982Y-165044345D01*
X207525744Y-165091964D01*
X207478125Y-165139583D01*
X207430506Y-165234821D01*
X227480506Y-163091964D02*
X226480506Y-163091964D01*
X226480506Y-163330059D01*
X226528125Y-163472917D01*
X226623363Y-163568155D01*
X226718601Y-163615774D01*
X226909077Y-163663393D01*
X227051935Y-163663393D01*
X227242411Y-163615774D01*
X227337649Y-163568155D01*
X227432887Y-163472917D01*
X227480506Y-163330059D01*
X227480506Y-163091964D01*
X226480506Y-164568155D02*
X226480506Y-164091964D01*
X226956696Y-164044345D01*
X226909077Y-164091964D01*
X226861458Y-164187202D01*
X226861458Y-164425298D01*
X226909077Y-164520536D01*
X226956696Y-164568155D01*
X227051935Y-164615774D01*
X227290030Y-164615774D01*
X227385268Y-164568155D01*
X227432887Y-164520536D01*
X227480506Y-164425298D01*
X227480506Y-164187202D01*
X227432887Y-164091964D01*
X227385268Y-164044345D01*
X227480506Y-165568155D02*
X227480506Y-164996726D01*
X227480506Y-165282440D02*
X226480506Y-165282440D01*
X226623363Y-165187202D01*
X226718601Y-165091964D01*
X226766220Y-164996726D01*
X246530506Y-163091964D02*
X245530506Y-163091964D01*
X245530506Y-163330059D01*
X245578125Y-163472917D01*
X245673363Y-163568155D01*
X245768601Y-163615774D01*
X245959077Y-163663393D01*
X246101935Y-163663393D01*
X246292411Y-163615774D01*
X246387649Y-163568155D01*
X246482887Y-163472917D01*
X246530506Y-163330059D01*
X246530506Y-163091964D01*
X245530506Y-164568155D02*
X245530506Y-164091964D01*
X246006696Y-164044345D01*
X245959077Y-164091964D01*
X245911458Y-164187202D01*
X245911458Y-164425298D01*
X245959077Y-164520536D01*
X246006696Y-164568155D01*
X246101935Y-164615774D01*
X246340030Y-164615774D01*
X246435268Y-164568155D01*
X246482887Y-164520536D01*
X246530506Y-164425298D01*
X246530506Y-164187202D01*
X246482887Y-164091964D01*
X246435268Y-164044345D01*
X245625744Y-164996726D02*
X245578125Y-165044345D01*
X245530506Y-165139583D01*
X245530506Y-165377679D01*
X245578125Y-165472917D01*
X245625744Y-165520536D01*
X245720982Y-165568155D01*
X245816220Y-165568155D01*
X245959077Y-165520536D01*
X246530506Y-164949107D01*
X246530506Y-165568155D01*
X265580506Y-163091964D02*
X264580506Y-163091964D01*
X264580506Y-163330059D01*
X264628125Y-163472917D01*
X264723363Y-163568155D01*
X264818601Y-163615774D01*
X265009077Y-163663393D01*
X265151935Y-163663393D01*
X265342411Y-163615774D01*
X265437649Y-163568155D01*
X265532887Y-163472917D01*
X265580506Y-163330059D01*
X265580506Y-163091964D01*
X264580506Y-164568155D02*
X264580506Y-164091964D01*
X265056696Y-164044345D01*
X265009077Y-164091964D01*
X264961458Y-164187202D01*
X264961458Y-164425298D01*
X265009077Y-164520536D01*
X265056696Y-164568155D01*
X265151935Y-164615774D01*
X265390030Y-164615774D01*
X265485268Y-164568155D01*
X265532887Y-164520536D01*
X265580506Y-164425298D01*
X265580506Y-164187202D01*
X265532887Y-164091964D01*
X265485268Y-164044345D01*
X264580506Y-164949107D02*
X264580506Y-165568155D01*
X264961458Y-165234821D01*
X264961458Y-165377679D01*
X265009077Y-165472917D01*
X265056696Y-165520536D01*
X265151935Y-165568155D01*
X265390030Y-165568155D01*
X265485268Y-165520536D01*
X265532887Y-165472917D01*
X265580506Y-165377679D01*
X265580506Y-165091964D01*
X265532887Y-164996726D01*
X265485268Y-164949107D01*
X284630506Y-163091964D02*
X283630506Y-163091964D01*
X283630506Y-163330059D01*
X283678125Y-163472917D01*
X283773363Y-163568155D01*
X283868601Y-163615774D01*
X284059077Y-163663393D01*
X284201935Y-163663393D01*
X284392411Y-163615774D01*
X284487649Y-163568155D01*
X284582887Y-163472917D01*
X284630506Y-163330059D01*
X284630506Y-163091964D01*
X283630506Y-164568155D02*
X283630506Y-164091964D01*
X284106696Y-164044345D01*
X284059077Y-164091964D01*
X284011458Y-164187202D01*
X284011458Y-164425298D01*
X284059077Y-164520536D01*
X284106696Y-164568155D01*
X284201935Y-164615774D01*
X284440030Y-164615774D01*
X284535268Y-164568155D01*
X284582887Y-164520536D01*
X284630506Y-164425298D01*
X284630506Y-164187202D01*
X284582887Y-164091964D01*
X284535268Y-164044345D01*
X283963839Y-165472917D02*
X284630506Y-165472917D01*
X283582887Y-165234821D02*
X284297173Y-164996726D01*
X284297173Y-165615774D01*
X303680506Y-163091964D02*
X302680506Y-163091964D01*
X302680506Y-163330059D01*
X302728125Y-163472917D01*
X302823363Y-163568155D01*
X302918601Y-163615774D01*
X303109077Y-163663393D01*
X303251935Y-163663393D01*
X303442411Y-163615774D01*
X303537649Y-163568155D01*
X303632887Y-163472917D01*
X303680506Y-163330059D01*
X303680506Y-163091964D01*
X302680506Y-164568155D02*
X302680506Y-164091964D01*
X303156696Y-164044345D01*
X303109077Y-164091964D01*
X303061458Y-164187202D01*
X303061458Y-164425298D01*
X303109077Y-164520536D01*
X303156696Y-164568155D01*
X303251935Y-164615774D01*
X303490030Y-164615774D01*
X303585268Y-164568155D01*
X303632887Y-164520536D01*
X303680506Y-164425298D01*
X303680506Y-164187202D01*
X303632887Y-164091964D01*
X303585268Y-164044345D01*
X302680506Y-165520536D02*
X302680506Y-165044345D01*
X303156696Y-164996726D01*
X303109077Y-165044345D01*
X303061458Y-165139583D01*
X303061458Y-165377679D01*
X303109077Y-165472917D01*
X303156696Y-165520536D01*
X303251935Y-165568155D01*
X303490030Y-165568155D01*
X303585268Y-165520536D01*
X303632887Y-165472917D01*
X303680506Y-165377679D01*
X303680506Y-165139583D01*
X303632887Y-165044345D01*
X303585268Y-164996726D01*
X329874256Y-163091964D02*
X328874256Y-163091964D01*
X328874256Y-163330059D01*
X328921875Y-163472917D01*
X329017113Y-163568155D01*
X329112351Y-163615774D01*
X329302827Y-163663393D01*
X329445685Y-163663393D01*
X329636161Y-163615774D01*
X329731399Y-163568155D01*
X329826637Y-163472917D01*
X329874256Y-163330059D01*
X329874256Y-163091964D01*
X328874256Y-164568155D02*
X328874256Y-164091964D01*
X329350446Y-164044345D01*
X329302827Y-164091964D01*
X329255208Y-164187202D01*
X329255208Y-164425298D01*
X329302827Y-164520536D01*
X329350446Y-164568155D01*
X329445685Y-164615774D01*
X329683780Y-164615774D01*
X329779018Y-164568155D01*
X329826637Y-164520536D01*
X329874256Y-164425298D01*
X329874256Y-164187202D01*
X329826637Y-164091964D01*
X329779018Y-164044345D01*
X328874256Y-165472917D02*
X328874256Y-165282440D01*
X328921875Y-165187202D01*
X328969494Y-165139583D01*
X329112351Y-165044345D01*
X329302827Y-164996726D01*
X329683780Y-164996726D01*
X329779018Y-165044345D01*
X329826637Y-165091964D01*
X329874256Y-165187202D01*
X329874256Y-165377679D01*
X329826637Y-165472917D01*
X329779018Y-165520536D01*
X329683780Y-165568155D01*
X329445685Y-165568155D01*
X329350446Y-165520536D01*
X329302827Y-165472917D01*
X329255208Y-165377679D01*
X329255208Y-165187202D01*
X329302827Y-165091964D01*
X329350446Y-165044345D01*
X329445685Y-164996726D01*
X356068006Y-163091964D02*
X355068006Y-163091964D01*
X355068006Y-163330059D01*
X355115625Y-163472917D01*
X355210863Y-163568155D01*
X355306101Y-163615774D01*
X355496577Y-163663393D01*
X355639435Y-163663393D01*
X355829911Y-163615774D01*
X355925149Y-163568155D01*
X356020387Y-163472917D01*
X356068006Y-163330059D01*
X356068006Y-163091964D01*
X355068006Y-164568155D02*
X355068006Y-164091964D01*
X355544196Y-164044345D01*
X355496577Y-164091964D01*
X355448958Y-164187202D01*
X355448958Y-164425298D01*
X355496577Y-164520536D01*
X355544196Y-164568155D01*
X355639435Y-164615774D01*
X355877530Y-164615774D01*
X355972768Y-164568155D01*
X356020387Y-164520536D01*
X356068006Y-164425298D01*
X356068006Y-164187202D01*
X356020387Y-164091964D01*
X355972768Y-164044345D01*
X355068006Y-164949107D02*
X355068006Y-165615774D01*
X356068006Y-165187202D01*
X375118006Y-163091964D02*
X374118006Y-163091964D01*
X374118006Y-163330059D01*
X374165625Y-163472917D01*
X374260863Y-163568155D01*
X374356101Y-163615774D01*
X374546577Y-163663393D01*
X374689435Y-163663393D01*
X374879911Y-163615774D01*
X374975149Y-163568155D01*
X375070387Y-163472917D01*
X375118006Y-163330059D01*
X375118006Y-163091964D01*
X374118006Y-164568155D02*
X374118006Y-164091964D01*
X374594196Y-164044345D01*
X374546577Y-164091964D01*
X374498958Y-164187202D01*
X374498958Y-164425298D01*
X374546577Y-164520536D01*
X374594196Y-164568155D01*
X374689435Y-164615774D01*
X374927530Y-164615774D01*
X375022768Y-164568155D01*
X375070387Y-164520536D01*
X375118006Y-164425298D01*
X375118006Y-164187202D01*
X375070387Y-164091964D01*
X375022768Y-164044345D01*
X374546577Y-165187202D02*
X374498958Y-165091964D01*
X374451339Y-165044345D01*
X374356101Y-164996726D01*
X374308482Y-164996726D01*
X374213244Y-165044345D01*
X374165625Y-165091964D01*
X374118006Y-165187202D01*
X374118006Y-165377679D01*
X374165625Y-165472917D01*
X374213244Y-165520536D01*
X374308482Y-165568155D01*
X374356101Y-165568155D01*
X374451339Y-165520536D01*
X374498958Y-165472917D01*
X374546577Y-165377679D01*
X374546577Y-165187202D01*
X374594196Y-165091964D01*
X374641815Y-165044345D01*
X374737054Y-164996726D01*
X374927530Y-164996726D01*
X375022768Y-165044345D01*
X375070387Y-165091964D01*
X375118006Y-165187202D01*
X375118006Y-165377679D01*
X375070387Y-165472917D01*
X375022768Y-165520536D01*
X374927530Y-165568155D01*
X374737054Y-165568155D01*
X374641815Y-165520536D01*
X374594196Y-165472917D01*
X374546577Y-165377679D01*
X94130506Y-182141964D02*
X93130506Y-182141964D01*
X93130506Y-182380059D01*
X93178125Y-182522917D01*
X93273363Y-182618155D01*
X93368601Y-182665774D01*
X93559077Y-182713393D01*
X93701935Y-182713393D01*
X93892411Y-182665774D01*
X93987649Y-182618155D01*
X94082887Y-182522917D01*
X94130506Y-182380059D01*
X94130506Y-182141964D01*
X93130506Y-183618155D02*
X93130506Y-183141964D01*
X93606696Y-183094345D01*
X93559077Y-183141964D01*
X93511458Y-183237202D01*
X93511458Y-183475298D01*
X93559077Y-183570536D01*
X93606696Y-183618155D01*
X93701935Y-183665774D01*
X93940030Y-183665774D01*
X94035268Y-183618155D01*
X94082887Y-183570536D01*
X94130506Y-183475298D01*
X94130506Y-183237202D01*
X94082887Y-183141964D01*
X94035268Y-183094345D01*
X94130506Y-184141964D02*
X94130506Y-184332440D01*
X94082887Y-184427679D01*
X94035268Y-184475298D01*
X93892411Y-184570536D01*
X93701935Y-184618155D01*
X93320982Y-184618155D01*
X93225744Y-184570536D01*
X93178125Y-184522917D01*
X93130506Y-184427679D01*
X93130506Y-184237202D01*
X93178125Y-184141964D01*
X93225744Y-184094345D01*
X93320982Y-184046726D01*
X93559077Y-184046726D01*
X93654315Y-184094345D01*
X93701935Y-184141964D01*
X93749554Y-184237202D01*
X93749554Y-184427679D01*
X93701935Y-184522917D01*
X93654315Y-184570536D01*
X93559077Y-184618155D01*
X117943006Y-182141964D02*
X116943006Y-182141964D01*
X116943006Y-182380059D01*
X116990625Y-182522917D01*
X117085863Y-182618155D01*
X117181101Y-182665774D01*
X117371577Y-182713393D01*
X117514435Y-182713393D01*
X117704911Y-182665774D01*
X117800149Y-182618155D01*
X117895387Y-182522917D01*
X117943006Y-182380059D01*
X117943006Y-182141964D01*
X116943006Y-183570536D02*
X116943006Y-183380059D01*
X116990625Y-183284821D01*
X117038244Y-183237202D01*
X117181101Y-183141964D01*
X117371577Y-183094345D01*
X117752530Y-183094345D01*
X117847768Y-183141964D01*
X117895387Y-183189583D01*
X117943006Y-183284821D01*
X117943006Y-183475298D01*
X117895387Y-183570536D01*
X117847768Y-183618155D01*
X117752530Y-183665774D01*
X117514435Y-183665774D01*
X117419196Y-183618155D01*
X117371577Y-183570536D01*
X117323958Y-183475298D01*
X117323958Y-183284821D01*
X117371577Y-183189583D01*
X117419196Y-183141964D01*
X117514435Y-183094345D01*
X116943006Y-184284821D02*
X116943006Y-184380060D01*
X116990625Y-184475298D01*
X117038244Y-184522917D01*
X117133482Y-184570536D01*
X117323958Y-184618155D01*
X117562054Y-184618155D01*
X117752530Y-184570536D01*
X117847768Y-184522917D01*
X117895387Y-184475298D01*
X117943006Y-184380060D01*
X117943006Y-184284821D01*
X117895387Y-184189583D01*
X117847768Y-184141964D01*
X117752530Y-184094345D01*
X117562054Y-184046726D01*
X117323958Y-184046726D01*
X117133482Y-184094345D01*
X117038244Y-184141964D01*
X116990625Y-184189583D01*
X116943006Y-184284821D01*
X141755506Y-182141964D02*
X140755506Y-182141964D01*
X140755506Y-182380059D01*
X140803125Y-182522917D01*
X140898363Y-182618155D01*
X140993601Y-182665774D01*
X141184077Y-182713393D01*
X141326935Y-182713393D01*
X141517411Y-182665774D01*
X141612649Y-182618155D01*
X141707887Y-182522917D01*
X141755506Y-182380059D01*
X141755506Y-182141964D01*
X140755506Y-183570536D02*
X140755506Y-183380059D01*
X140803125Y-183284821D01*
X140850744Y-183237202D01*
X140993601Y-183141964D01*
X141184077Y-183094345D01*
X141565030Y-183094345D01*
X141660268Y-183141964D01*
X141707887Y-183189583D01*
X141755506Y-183284821D01*
X141755506Y-183475298D01*
X141707887Y-183570536D01*
X141660268Y-183618155D01*
X141565030Y-183665774D01*
X141326935Y-183665774D01*
X141231696Y-183618155D01*
X141184077Y-183570536D01*
X141136458Y-183475298D01*
X141136458Y-183284821D01*
X141184077Y-183189583D01*
X141231696Y-183141964D01*
X141326935Y-183094345D01*
X141755506Y-184618155D02*
X141755506Y-184046726D01*
X141755506Y-184332440D02*
X140755506Y-184332440D01*
X140898363Y-184237202D01*
X140993601Y-184141964D01*
X141041220Y-184046726D01*
X222718006Y-182141964D02*
X221718006Y-182141964D01*
X221718006Y-182380059D01*
X221765625Y-182522917D01*
X221860863Y-182618155D01*
X221956101Y-182665774D01*
X222146577Y-182713393D01*
X222289435Y-182713393D01*
X222479911Y-182665774D01*
X222575149Y-182618155D01*
X222670387Y-182522917D01*
X222718006Y-182380059D01*
X222718006Y-182141964D01*
X221718006Y-183570536D02*
X221718006Y-183380059D01*
X221765625Y-183284821D01*
X221813244Y-183237202D01*
X221956101Y-183141964D01*
X222146577Y-183094345D01*
X222527530Y-183094345D01*
X222622768Y-183141964D01*
X222670387Y-183189583D01*
X222718006Y-183284821D01*
X222718006Y-183475298D01*
X222670387Y-183570536D01*
X222622768Y-183618155D01*
X222527530Y-183665774D01*
X222289435Y-183665774D01*
X222194196Y-183618155D01*
X222146577Y-183570536D01*
X222098958Y-183475298D01*
X222098958Y-183284821D01*
X222146577Y-183189583D01*
X222194196Y-183141964D01*
X222289435Y-183094345D01*
X221813244Y-184046726D02*
X221765625Y-184094345D01*
X221718006Y-184189583D01*
X221718006Y-184427679D01*
X221765625Y-184522917D01*
X221813244Y-184570536D01*
X221908482Y-184618155D01*
X222003720Y-184618155D01*
X222146577Y-184570536D01*
X222718006Y-183999107D01*
X222718006Y-184618155D01*
X303680506Y-182141964D02*
X302680506Y-182141964D01*
X302680506Y-182380059D01*
X302728125Y-182522917D01*
X302823363Y-182618155D01*
X302918601Y-182665774D01*
X303109077Y-182713393D01*
X303251935Y-182713393D01*
X303442411Y-182665774D01*
X303537649Y-182618155D01*
X303632887Y-182522917D01*
X303680506Y-182380059D01*
X303680506Y-182141964D01*
X302680506Y-183570536D02*
X302680506Y-183380059D01*
X302728125Y-183284821D01*
X302775744Y-183237202D01*
X302918601Y-183141964D01*
X303109077Y-183094345D01*
X303490030Y-183094345D01*
X303585268Y-183141964D01*
X303632887Y-183189583D01*
X303680506Y-183284821D01*
X303680506Y-183475298D01*
X303632887Y-183570536D01*
X303585268Y-183618155D01*
X303490030Y-183665774D01*
X303251935Y-183665774D01*
X303156696Y-183618155D01*
X303109077Y-183570536D01*
X303061458Y-183475298D01*
X303061458Y-183284821D01*
X303109077Y-183189583D01*
X303156696Y-183141964D01*
X303251935Y-183094345D01*
X302680506Y-183999107D02*
X302680506Y-184618155D01*
X303061458Y-184284821D01*
X303061458Y-184427679D01*
X303109077Y-184522917D01*
X303156696Y-184570536D01*
X303251935Y-184618155D01*
X303490030Y-184618155D01*
X303585268Y-184570536D01*
X303632887Y-184522917D01*
X303680506Y-184427679D01*
X303680506Y-184141964D01*
X303632887Y-184046726D01*
X303585268Y-183999107D01*
X337018006Y-182141964D02*
X336018006Y-182141964D01*
X336018006Y-182380059D01*
X336065625Y-182522917D01*
X336160863Y-182618155D01*
X336256101Y-182665774D01*
X336446577Y-182713393D01*
X336589435Y-182713393D01*
X336779911Y-182665774D01*
X336875149Y-182618155D01*
X336970387Y-182522917D01*
X337018006Y-182380059D01*
X337018006Y-182141964D01*
X336018006Y-183570536D02*
X336018006Y-183380059D01*
X336065625Y-183284821D01*
X336113244Y-183237202D01*
X336256101Y-183141964D01*
X336446577Y-183094345D01*
X336827530Y-183094345D01*
X336922768Y-183141964D01*
X336970387Y-183189583D01*
X337018006Y-183284821D01*
X337018006Y-183475298D01*
X336970387Y-183570536D01*
X336922768Y-183618155D01*
X336827530Y-183665774D01*
X336589435Y-183665774D01*
X336494196Y-183618155D01*
X336446577Y-183570536D01*
X336398958Y-183475298D01*
X336398958Y-183284821D01*
X336446577Y-183189583D01*
X336494196Y-183141964D01*
X336589435Y-183094345D01*
X336351339Y-184522917D02*
X337018006Y-184522917D01*
X335970387Y-184284821D02*
X336684673Y-184046726D01*
X336684673Y-184665774D01*
X356068006Y-182141964D02*
X355068006Y-182141964D01*
X355068006Y-182380059D01*
X355115625Y-182522917D01*
X355210863Y-182618155D01*
X355306101Y-182665774D01*
X355496577Y-182713393D01*
X355639435Y-182713393D01*
X355829911Y-182665774D01*
X355925149Y-182618155D01*
X356020387Y-182522917D01*
X356068006Y-182380059D01*
X356068006Y-182141964D01*
X355068006Y-183570536D02*
X355068006Y-183380059D01*
X355115625Y-183284821D01*
X355163244Y-183237202D01*
X355306101Y-183141964D01*
X355496577Y-183094345D01*
X355877530Y-183094345D01*
X355972768Y-183141964D01*
X356020387Y-183189583D01*
X356068006Y-183284821D01*
X356068006Y-183475298D01*
X356020387Y-183570536D01*
X355972768Y-183618155D01*
X355877530Y-183665774D01*
X355639435Y-183665774D01*
X355544196Y-183618155D01*
X355496577Y-183570536D01*
X355448958Y-183475298D01*
X355448958Y-183284821D01*
X355496577Y-183189583D01*
X355544196Y-183141964D01*
X355639435Y-183094345D01*
X355068006Y-184570536D02*
X355068006Y-184094345D01*
X355544196Y-184046726D01*
X355496577Y-184094345D01*
X355448958Y-184189583D01*
X355448958Y-184427679D01*
X355496577Y-184522917D01*
X355544196Y-184570536D01*
X355639435Y-184618155D01*
X355877530Y-184618155D01*
X355972768Y-184570536D01*
X356020387Y-184522917D01*
X356068006Y-184427679D01*
X356068006Y-184189583D01*
X356020387Y-184094345D01*
X355972768Y-184046726D01*
X375118006Y-182141964D02*
X374118006Y-182141964D01*
X374118006Y-182380059D01*
X374165625Y-182522917D01*
X374260863Y-182618155D01*
X374356101Y-182665774D01*
X374546577Y-182713393D01*
X374689435Y-182713393D01*
X374879911Y-182665774D01*
X374975149Y-182618155D01*
X375070387Y-182522917D01*
X375118006Y-182380059D01*
X375118006Y-182141964D01*
X374118006Y-183570536D02*
X374118006Y-183380059D01*
X374165625Y-183284821D01*
X374213244Y-183237202D01*
X374356101Y-183141964D01*
X374546577Y-183094345D01*
X374927530Y-183094345D01*
X375022768Y-183141964D01*
X375070387Y-183189583D01*
X375118006Y-183284821D01*
X375118006Y-183475298D01*
X375070387Y-183570536D01*
X375022768Y-183618155D01*
X374927530Y-183665774D01*
X374689435Y-183665774D01*
X374594196Y-183618155D01*
X374546577Y-183570536D01*
X374498958Y-183475298D01*
X374498958Y-183284821D01*
X374546577Y-183189583D01*
X374594196Y-183141964D01*
X374689435Y-183094345D01*
X374118006Y-184522917D02*
X374118006Y-184332440D01*
X374165625Y-184237202D01*
X374213244Y-184189583D01*
X374356101Y-184094345D01*
X374546577Y-184046726D01*
X374927530Y-184046726D01*
X375022768Y-184094345D01*
X375070387Y-184141964D01*
X375118006Y-184237202D01*
X375118006Y-184427679D01*
X375070387Y-184522917D01*
X375022768Y-184570536D01*
X374927530Y-184618155D01*
X374689435Y-184618155D01*
X374594196Y-184570536D01*
X374546577Y-184522917D01*
X374498958Y-184427679D01*
X374498958Y-184237202D01*
X374546577Y-184141964D01*
X374594196Y-184094345D01*
X374689435Y-184046726D01*
X235138095Y-95952381D02*
X235138095Y-96761905D01*
X235090476Y-96857143D01*
X235042857Y-96904762D01*
X234947619Y-96952381D01*
X234757142Y-96952381D01*
X234661904Y-96904762D01*
X234614285Y-96857143D01*
X234566666Y-96761905D01*
X234566666Y-95952381D01*
X234138095Y-96904762D02*
X233995238Y-96952381D01*
X233757142Y-96952381D01*
X233661904Y-96904762D01*
X233614285Y-96857143D01*
X233566666Y-96761905D01*
X233566666Y-96666667D01*
X233614285Y-96571429D01*
X233661904Y-96523810D01*
X233757142Y-96476190D01*
X233947619Y-96428571D01*
X234042857Y-96380952D01*
X234090476Y-96333333D01*
X234138095Y-96238095D01*
X234138095Y-96142857D01*
X234090476Y-96047619D01*
X234042857Y-96000000D01*
X233947619Y-95952381D01*
X233709523Y-95952381D01*
X233566666Y-96000000D01*
X232804761Y-96428571D02*
X232661904Y-96476190D01*
X232614285Y-96523810D01*
X232566666Y-96619048D01*
X232566666Y-96761905D01*
X232614285Y-96857143D01*
X232661904Y-96904762D01*
X232757142Y-96952381D01*
X233138095Y-96952381D01*
X233138095Y-95952381D01*
X232804761Y-95952381D01*
X232709523Y-96000000D01*
X232661904Y-96047619D01*
X232614285Y-96142857D01*
X232614285Y-96238095D01*
X232661904Y-96333333D01*
X232709523Y-96380952D01*
X232804761Y-96428571D01*
X233138095Y-96428571D01*
X231614285Y-96952381D02*
X232185714Y-96952381D01*
X231900000Y-96952381D02*
X231900000Y-95952381D01*
X231995238Y-96095238D01*
X232090476Y-96190476D01*
X232185714Y-96238095D01*
M02*
